<?xml version="1.0" encoding="UTF-8"?>
<svg id="Capa_2" xmlns="http://www.w3.org/2000/svg" version="1.1" viewBox="0 0 1158.1 1158.1">
  <!-- Generator: Adobe Illustrator 30.2.1, SVG Export Plug-In . SVG Version: 2.1.1 Build 1)  -->
  <defs>
    <style>
      .st0 {
        fill: #4e7cce;
      }
    </style>
  </defs>
  <path class="st0" d="M837.1,542.6c12,44.8,12.2,92.7.1,137.5-1.8,6.6-3.8,13.2-6.1,19.7-7.8,21.9-18.4,42.8-31.4,62-13,19.2-29.1,36.7-46.6,52-13.8,12-22.3,17.8-43.8,30.7-8.7,4.8-17.3,10.7-27.6,8.4-14.2-3.1-25.3-14-32.7-26-12.3-20.2-10.7-44.9-6.6-67.2,2-11,5.2-21.8,9.4-32.2,9.7-23.7,24.9-45.4,44.4-62.1,8-6.9,16.7-12.9,25.7-18.4,5.7-3.5,11.7-6.6,17.2-10.4,5.1-3.6,9.9-7.6,14.3-12,8.7-8.7,15.8-18.9,20.8-30,9-19.9,11.5-42.7,6.8-64-5.4-24.2-19.7-46.3-39.6-61-19.2-14.2-43.9-21.6-67.8-19.7-14.8,1.2-28.8,7-43.8,4.9-12.8-1.7-24.9-7.4-34.4-16.1-1.5-1.4-3-2.9-4.4-4.5-17.2-19.5-20.5-49.1-8.1-71.9,3.4-6.3,8.5-12.3,15.5-14.7,7.5-2.6,15.3-1.3,23.5,0,33.3,5.7,59.6,15.1,86.3,29.8,43.6,24,79.8,60.3,104.2,103.7,8.8,15.6,15.5,31.1,20.9,47.8,1.5,4.6,2.6,9.3,3.9,14Z"/>
  <path class="st0" d="M563.2,475.1c-.3,2-.6,4-1.1,5.9-4,15.9-14.4,29.4-25.6,41.3-12.9,13.8-27.8,26.7-36.8,43.6-8.6,16.4-13,35-12.2,53.5,1,22.4,9.8,44.5,25,61.1,13.7,15,32.1,25.2,46,40.1,16.7,17.9,26.1,42.4,26.1,66.9,0,17.8-4.8,35.6-13.5,51.1-7.9,14-20.2,31.8-37.4,34-6,.8-12.4-.2-18.2-1.8-27.8-7.3-54.8-18.4-79.1-33.8-10-6.3-19.5-13.3-28.6-20.9-41.7-34.9-72.5-82.3-86.6-135.2-17.4-64.8-9.9-134.8,21.5-194.1,21.7-41,54.2-76,93.2-101.1,11.8-7.6,26.7-13.3,40.9-11.7,19.8,2.2,23.5,17.2,31.7,32.4,7.1,13.2,21.6,18.5,33.7,26,15.6,9.6,23.6,24.1,21.1,42.8Z"/>
</svg>