<?xml version="1.0" encoding="UTF-8"?>
<svg xmlns="http://www.w3.org/2000/svg" viewBox="0 0 1158.13 1158.13">
  <defs>
    <style>
      .cls-1 {
        fill: #f9f9f9;
      }

      .cls-2 {
        fill: #4e7cce;
      }
    </style>
  </defs>
  <g id="Capa_1" data-name="Capa 1">
    <rect class="cls-2" x="0" width="1158.13" height="1158.13"/>
  </g>
  <g id="Capa_2" data-name="Capa 2">
    <g>
      <g>
        <path class="cls-1" d="M405.59,515.91c4.09,15.29,4.16,31.64.04,46.93-.61,2.27-1.31,4.51-2.1,6.72-2.65,7.47-6.27,14.6-10.71,21.17-4.44,6.56-9.95,12.54-15.92,17.76-4.73,4.1-7.61,6.06-14.96,10.47-2.95,1.62-5.92,3.64-9.42,2.86-4.84-1.07-8.63-4.78-11.15-8.89-4.21-6.88-3.66-15.33-2.25-22.93.7-3.77,1.78-7.46,3.23-11,3.3-8.09,8.5-15.51,15.15-21.2,2.74-2.34,5.71-4.4,8.77-6.29,1.94-1.2,4.01-2.24,5.88-3.54,1.75-1.22,3.39-2.59,4.89-4.1,2.95-2.96,5.38-6.44,7.1-10.24,3.09-6.8,3.93-14.56,2.32-21.86-1.83-8.25-6.73-15.79-13.53-20.81-6.57-4.85-14.99-7.37-23.15-6.73-5.06.39-9.84,2.39-14.96,1.69-4.36-.59-8.51-2.52-11.75-5.5-.53-.48-1.03-.99-1.5-1.53-5.88-6.64-6.99-16.75-2.76-24.54,1.17-2.17,2.89-4.2,5.28-5.03,2.57-.9,5.22-.45,8.02-.03,11.38,1.95,20.33,5.15,29.45,10.16,14.9,8.19,27.24,20.57,35.55,35.39,2.99,5.34,5.3,10.6,7.14,16.32.52,1.58.9,3.17,1.33,4.78Z"/>
        <path class="cls-1" d="M312.09,492.88c-.09.68-.22,1.35-.38,2.01-1.36,5.42-4.92,10.02-8.74,14.1-4.41,4.72-9.51,9.1-12.55,14.89-2.94,5.59-4.45,11.95-4.16,18.27.35,7.65,3.36,15.2,8.53,20.85,4.69,5.12,10.96,8.59,15.7,13.67,5.7,6.12,8.9,14.47,8.92,22.83.01,6.09-1.63,12.15-4.62,17.45-2.69,4.78-6.91,10.84-12.78,11.59-2.04.26-4.23-.08-6.22-.6-9.49-2.49-18.71-6.29-27-11.54-3.4-2.16-6.66-4.54-9.75-7.12-14.25-11.92-24.73-28.1-29.57-46.14-5.93-22.13-3.38-46.02,7.34-66.27,7.41-14,18.51-25.94,31.8-34.52,4.02-2.59,9.1-4.53,13.96-4,6.75.73,8.03,5.87,10.82,11.05,2.43,4.51,7.36,6.33,11.49,8.87,5.33,3.28,8.04,8.23,7.21,14.62Z"/>
      </g>
      <g>
        <path class="cls-1" d="M636.32,581.13v40.87c0,1.91-1.54,3.45-3.45,3.45h-80.75c-1.91,0-3.45-1.54-3.45-3.45v-166.42c0-1.91,1.54-3.45,3.45-3.45h40.87c1.91,0,3.45,1.54,3.45,3.45v118.66c0,1.91,1.54,3.45,3.45,3.45h32.99c1.91,0,3.45,1.54,3.45,3.45Z"/>
        <rect class="cls-1" x="455.16" y="452.13" width="47.76" height="173.31" rx="3.45" ry="3.45"/>
        <path class="cls-1" d="M784.18,583.07c-.52,7.08-2.07,13.97-5.28,20.38-5.48,11-14.82,17.18-26.1,20.95-11.42,3.83-23.22,4.44-35.16,4.06-8.02-.29-16-.99-23.74-3.3-16.85-4.96-25.91-16.57-28.41-33.6-.33-2.2-.53-4.41-.64-6.63-.03-.6-.08-1.2-.02-1.8.05-.44.15-.88.3-1.3.3-.82.8-1.55,1.45-2.13s1.44-1,2.29-1.21c.42-.1.85-.15,1.28-.15h33.47c.77,0,1.51.18,2.17.49.99.47,1.83,1.21,2.38,2.15.66,1.12.71,2.36.89,3.62.16,1.07.36,2.14.6,3.19,1.7,6.79,6.56,10.81,13.21,10.9,7.12.1,12.13-3.58,14.07-10.52,2.59-9.16-.14-16.85-8.12-22.65-6.28-4.63-13.54-7.22-20.67-10.15-7.41-3.02-14.82-6.04-21.42-10.76-12.6-9.06-19.07-21.33-19.68-36.81-.38-10.05.33-19.97,4.01-29.4,5.15-13.26,14.73-21.94,28.32-25.86,17.08-4.86,34.31-4.62,51.34.43,14.68,4.34,23.22,14.58,26.85,29.17.83,3.52,1.43,7.09,1.79,10.69.09.85.19,1.74.25,2.61s.16,1.76.03,2.61c-.19,1.23-.77,2.41-1.68,3.27-.78.74-3.31,1.43-3.55,1.44-1.82.07-30.66.15-32.17-.07-1.05-.15-2.21-.51-2.98-1.29-1.01-.92-1.65-2.22-1.81-3.57-.03-.23-.04-.47-.04-.71,0-3.31-2.36-10.22-2.46-10.44-1.89-4.01-4.96-6.46-9.49-6.7-4.91-.24-9.15,1.08-11.94,5.57-4.86,7.69-3.4,17.74,3.49,23.69,5.71,5,12.65,7.78,19.49,10.76,7.5,3.21,15.24,5.85,22.32,10,10.05,5.9,17.94,13.78,22.27,24.78,3.59,9.11,3.78,18.69,3.07,28.32Z"/>
        <path class="cls-1" d="M906.6,454.77c-.37-1.81-1.97-3.17-3.89-3.17h-61.51c-4.46,0-4.18,5.36-4.64,8.49-.65,4.43-23.35,158.88-23.51,159.97-.07.47-.13.92-.06,1.4.13.98.64,1.89,1.4,2.53,1.14.96,2.57.91,3.97.91,1.71,0,25.35.01,30.32.02,1.52,0,3.2-.06,4.3-1.11,1.46-1.38,1.38-4.02,1.66-5.9.3-2.02,1.25-9.12,1.56-10.61.12-.58.65-1.03,1.27-1.03h28.98c.62,0,1.13.42,1.27.99.03.09,2.1,14.37,2.12,14.5.36,1.74,1.86,3.07,3.69,3.15h33.46c2.2,0,3.97-1.77,3.97-3.96,0-.13-24.34-166.1-24.35-166.18ZM882,577.15c-.32.03-19.92,0-20.04,0-.65-.07-1.16-.61-1.16-1.29v-.09s9.85-74.55,9.85-74.55c.03-.19.08-.38.17-.55s.2-.32.34-.44.32-.22.51-.26c.23-.06.48-.05.71.02.15.04.29.12.41.22s.22.24.29.38c.09.17.19.61.19.64,0,0,9.84,74.58,9.84,74.65,0,.65-.79,1.26-1.11,1.29Z"/>
      </g>
      <g>
        <path class="cls-1" d="M228.49,651.08h5.22v21.36h-5.22v-21.36Z"/>
        <path class="cls-1" d="M243.12,672.44h-4.85v-21.36h4.82l9,11.72,1.28,1.77-.03-1.77-.06-11.72h4.82v21.36h-4.7l-9.25-12.05-1.16-1.56.06,1.59.06,12.02Z"/>
        <path class="cls-1" d="M262.1,666.19c3.3,1.98,5.43,2.59,7.26,2.59s2.81-.76,2.81-1.98c0-.95-.58-1.65-2.23-2.32l-3.81-1.59c-3.02-1.25-4.36-3.14-4.36-5.71,0-3.69,2.84-6.41,7.87-6.41,2.84,0,5.04.73,6.47,1.62v4.97c-2.81-1.92-4.97-2.5-6.77-2.5-1.56,0-2.5.79-2.5,1.83,0,.85.55,1.56,2.11,2.2l3.72,1.53c3.33,1.37,4.73,3.17,4.73,5.86,0,3.78-3.08,6.47-7.97,6.47-2.9,0-5.37-.67-7.32-1.83v-4.73Z"/>
        <path class="cls-1" d="M285.46,672.44v-17.03h-6.84v-4.33h18.92v4.33h-6.87v17.03h-5.22Z"/>
        <path class="cls-1" d="M300.05,651.08h5.22v21.36h-5.22v-21.36Z"/>
        <path class="cls-1" d="M314.55,672.44v-17.03h-6.84v-4.33h18.92v4.33h-6.87v17.03h-5.22Z"/>
        <path class="cls-1" d="M334.22,663.07c0,3.42,1.8,5,4.39,5s4.36-1.65,4.36-5v-11.99h5.19v12.18c0,5.52-3.51,9.49-9.61,9.49s-9.55-3.54-9.55-9.49v-12.18h5.22v11.99Z"/>
        <path class="cls-1" d="M357.37,672.44v-17.03h-6.84v-4.33h18.92v4.33h-6.87v17.03h-5.22Z"/>
        <path class="cls-1" d="M393.49,661.76c0,6.35-5.13,10.99-11.47,10.99s-11.38-4.61-11.38-10.99,5.22-10.99,11.51-10.99,11.35,4.64,11.35,10.99ZM375.88,661.79c0,3.51,2.56,6.41,6.2,6.41s6.16-2.9,6.16-6.41-2.53-6.41-6.16-6.41-6.2,2.87-6.2,6.41Z"/>
        <path class="cls-1" d="M434.45,672.44h-14.98v-21.36h5.22v17.12h9.77v4.24Z"/>
        <path class="cls-1" d="M451.64,667.93h-8.54l-1.74,4.52h-5.22l8.79-21.36h5.1l8.76,21.36h-5.37l-1.77-4.52ZM450.2,664.2l-2.84-7.26-2.81,7.26h5.65Z"/>
        <path class="cls-1" d="M463.63,672.44v-17.03h-6.84v-4.33h18.92v4.33h-6.87v17.03h-5.22Z"/>
        <path class="cls-1" d="M478.21,651.08h5.22v21.36h-5.22v-21.36Z"/>
        <path class="cls-1" d="M492.84,672.44h-4.85v-21.36h4.82l9,11.72,1.28,1.77-.03-1.77-.06-11.72h4.82v21.36h-4.7l-9.25-12.05-1.16-1.56.06,1.59.06,12.02Z"/>
        <path class="cls-1" d="M534.23,661.76c0,6.35-5.13,10.99-11.47,10.99s-11.38-4.61-11.38-10.99,5.22-10.99,11.51-10.99,11.35,4.64,11.35,10.99ZM516.62,661.79c0,3.51,2.56,6.41,6.2,6.41s6.16-2.9,6.16-6.41-2.53-6.41-6.16-6.41-6.2,2.87-6.2,6.41Z"/>
        <path class="cls-1" d="M550.08,667.93h-8.54l-1.74,4.52h-5.22l8.79-21.36h5.1l8.76,21.36h-5.37l-1.77-4.52ZM548.65,664.2l-2.84-7.26-2.81,7.26h5.65Z"/>
        <path class="cls-1" d="M564.35,672.44h-4.79v-21.36h5.34l6.62,9.34,6.62-9.34h5.28v21.36h-4.85l.03-12.57.03-1.83-.95,1.31-6.23,8.48-6.23-8.48-.95-1.31.03,1.83.03,12.57Z"/>
        <path class="cls-1" d="M588.09,651.08h14.98v4.24h-9.77v4.3h8.76v4.06h-8.76v4.73h9.86v4.03h-15.08v-21.36Z"/>
        <path class="cls-1" d="M607.17,651.08h9c4.88,0,7.39,2.84,7.39,6.59,0,2.99-1.89,5.31-4.7,6.23l6.9,8.54h-6.23l-5.98-8h-1.22v8h-5.16v-21.36ZM612.32,655.38v5.28h2.99c2.08,0,3.11-1.1,3.11-2.66s-1.04-2.62-3.11-2.62h-2.99Z"/>
        <path class="cls-1" d="M627.94,651.08h5.22v21.36h-5.22v-21.36Z"/>
        <path class="cls-1" d="M636.67,661.76c0-6.44,4.91-10.96,11.66-10.96,3.23,0,5.77.95,7.48,2.29v5.31c-2.23-1.98-4.49-2.96-7.08-2.96-4.27,0-6.74,2.87-6.74,6.35s2.53,6.44,6.81,6.44c2.78,0,5.13-1.07,7.02-2.87v5.07c-2.01,1.46-4.55,2.29-7.6,2.29-6.74,0-11.54-4.49-11.54-10.96Z"/>
        <path class="cls-1" d="M672.94,667.93h-8.54l-1.74,4.52h-5.22l8.79-21.36h5.1l8.76,21.36h-5.37l-1.77-4.52ZM671.5,664.2l-2.84-7.26-2.81,7.26h5.65Z"/>
        <path class="cls-1" d="M687.27,672.44h-4.85v-21.36h4.82l9,11.72,1.28,1.77-.03-1.77-.06-11.72h4.82v21.36h-4.7l-9.25-12.05-1.16-1.56.06,1.59.06,12.02Z"/>
        <path class="cls-1" d="M728.65,661.76c0,6.35-5.13,10.99-11.47,10.99s-11.38-4.61-11.38-10.99,5.22-10.99,11.51-10.99,11.35,4.64,11.35,10.99ZM711.04,661.79c0,3.51,2.56,6.41,6.2,6.41s6.16-2.9,6.16-6.41-2.53-6.41-6.16-6.41-6.2,2.87-6.2,6.41Z"/>
        <path class="cls-1" d="M754.63,651.08h9.25c4.94,0,7.57,3.11,7.57,6.99,0,4.24-2.99,7.23-7.93,7.23h-3.66v7.14h-5.22v-21.36ZM759.85,655.41v5.86h2.93c2.47,0,3.57-1.25,3.57-2.93s-1.1-2.93-3.57-2.93h-2.93Z"/>
        <path class="cls-1" d="M786.21,667.93h-8.54l-1.74,4.52h-5.22l8.79-21.36h5.1l8.76,21.36h-5.37l-1.77-4.52ZM784.77,664.2l-2.84-7.26-2.81,7.26h5.65Z"/>
        <path class="cls-1" d="M795.68,651.08h9c4.88,0,7.39,2.84,7.39,6.59,0,2.99-1.89,5.31-4.7,6.23l6.9,8.54h-6.23l-5.98-8h-1.22v8h-5.16v-21.36ZM800.84,655.38v5.28h2.99c2.08,0,3.11-1.1,3.11-2.66s-1.04-2.62-3.11-2.62h-2.99Z"/>
        <path class="cls-1" d="M831,667.93h-8.54l-1.74,4.52h-5.22l8.79-21.36h5.1l8.76,21.36h-5.37l-1.77-4.52ZM829.57,664.2l-2.84-7.26-2.81,7.26h5.65Z"/>
        <path class="cls-1" d="M867.9,663.07c0,3.42,1.8,5,4.39,5s4.36-1.65,4.36-5v-11.99h5.19v12.18c0,5.52-3.51,9.49-9.61,9.49s-9.55-3.54-9.55-9.49v-12.18h5.22v11.99Z"/>
        <path class="cls-1" d="M891.07,672.44h-4.85v-21.36h4.82l9,11.72,1.28,1.77-.03-1.77-.06-11.72h4.82v21.36h-4.7l-9.25-12.05-1.16-1.56.06,1.59.06,12.02Z"/>
        <path class="cls-1" d="M923.91,667.93h-8.54l-1.74,4.52h-5.22l8.79-21.36h5.1l8.76,21.36h-5.37l-1.77-4.52ZM922.48,664.2l-2.84-7.26-2.81,7.26h5.65Z"/>
        <path class="cls-1" d="M227.54,702.8c3.3,1.98,5.43,2.59,7.26,2.59s2.81-.76,2.81-1.98c0-.95-.58-1.65-2.23-2.32l-3.81-1.59c-3.02-1.25-4.36-3.14-4.36-5.71,0-3.69,2.84-6.41,7.87-6.41,2.84,0,5.04.73,6.47,1.62v4.97c-2.81-1.92-4.97-2.5-6.77-2.5-1.56,0-2.5.79-2.5,1.83,0,.85.55,1.56,2.11,2.2l3.72,1.53c3.33,1.37,4.73,3.17,4.73,5.86,0,3.78-3.08,6.47-7.97,6.47-2.9,0-5.37-.67-7.32-1.83v-4.73Z"/>
        <path class="cls-1" d="M269.67,698.37c0,6.35-5.13,10.99-11.47,10.99s-11.38-4.61-11.38-10.99,5.22-10.99,11.51-10.99,11.35,4.64,11.35,10.99ZM252.06,698.4c0,3.51,2.56,6.41,6.2,6.41s6.16-2.9,6.16-6.41-2.53-6.41-6.16-6.41-6.2,2.87-6.2,6.41Z"/>
        <path class="cls-1" d="M273.97,698.37c0-6.44,4.91-10.96,11.66-10.96,3.23,0,5.77.95,7.48,2.29v5.31c-2.23-1.98-4.49-2.96-7.08-2.96-4.27,0-6.74,2.87-6.74,6.35s2.53,6.44,6.81,6.44c2.78,0,5.13-1.07,7.02-2.87v5.07c-2.01,1.46-4.55,2.29-7.6,2.29-6.74,0-11.54-4.49-11.54-10.96Z"/>
        <path class="cls-1" d="M299.01,687.69h5.22v21.36h-5.22v-21.36Z"/>
        <path class="cls-1" d="M310.59,687.69h14.98v4.24h-9.77v4.3h8.76v4.06h-8.76v4.73h9.86v4.03h-15.08v-21.36Z"/>
        <path class="cls-1" d="M331.46,687.69h8.94c6.16,0,11.17,4.18,11.17,10.68s-5.28,10.68-11.32,10.68h-8.79v-21.36ZM336.68,692.03v12.82h3.05c4.09,0,6.59-2.69,6.59-6.44s-2.53-6.38-6.59-6.38h-3.05Z"/>
        <path class="cls-1" d="M369.23,704.54h-8.54l-1.74,4.52h-5.22l8.79-21.36h5.1l8.76,21.36h-5.37l-1.77-4.52ZM367.79,700.81l-2.84-7.26-2.81,7.26h5.65Z"/>
        <path class="cls-1" d="M380.51,687.69h8.94c6.16,0,11.17,4.18,11.17,10.68s-5.28,10.68-11.32,10.68h-8.79v-21.36ZM385.72,692.03v12.82h3.05c4.09,0,6.59-2.69,6.59-6.44s-2.53-6.38-6.59-6.38h-3.05Z"/>
        <path class="cls-1" d="M425.27,700.27v8.79h-5.22v-8.85l-8.15-12.51h5.86l4.97,8.12,4.94-8.12h5.74l-8.15,12.57Z"/>
        <path class="cls-1" d="M450.47,699.69c0,3.42,1.8,5,4.39,5s4.36-1.65,4.36-5v-11.99h5.19v12.18c0,5.52-3.51,9.49-9.61,9.49s-9.55-3.54-9.55-9.49v-12.18h5.22v11.99Z"/>
        <path class="cls-1" d="M475.43,709.05h-4.85v-21.36h4.82l9,11.72,1.28,1.77-.03-1.77-.06-11.72h4.82v21.36h-4.7l-9.25-12.05-1.16-1.56.06,1.59.06,12.02Z"/>
        <path class="cls-1" d="M504.78,687.69h8.94c6.16,0,11.17,4.18,11.17,10.68s-5.28,10.68-11.32,10.68h-8.79v-21.36ZM510,692.03v12.82h3.05c4.09,0,6.59-2.69,6.59-6.44s-2.53-6.38-6.59-6.38h-3.05Z"/>
        <path class="cls-1" d="M530.22,687.69h14.98v4.24h-9.77v4.3h8.76v4.06h-8.76v4.73h9.86v4.03h-15.08v-21.36Z"/>
        <path class="cls-1" d="M551.1,687.69h9c4.88,0,7.39,2.84,7.39,6.59,0,2.99-1.89,5.31-4.7,6.23l6.9,8.54h-6.23l-5.98-8h-1.22v8h-5.16v-21.36ZM556.26,692v5.28h2.99c2.08,0,3.11-1.1,3.11-2.66s-1.04-2.62-3.11-2.62h-2.99Z"/>
        <path class="cls-1" d="M573.67,687.69h14.98v4.24h-9.77v4.3h8.76v4.06h-8.76v4.73h9.86v4.03h-15.08v-21.36Z"/>
        <path class="cls-1" d="M593.18,698.37c0-6.44,4.91-10.96,11.66-10.96,3.23,0,5.77.95,7.48,2.29v5.31c-2.23-1.98-4.49-2.96-7.08-2.96-4.27,0-6.74,2.87-6.74,6.35s2.53,6.44,6.81,6.44c2.78,0,5.13-1.07,7.02-2.87v5.07c-2.01,1.46-4.55,2.29-7.6,2.29-6.74,0-11.54-4.49-11.54-10.96Z"/>
        <path class="cls-1" d="M631.97,700.27h-8.54v8.79h-5.22v-21.36h5.22v8.09h8.54v-8.09h5.22v21.36h-5.22v-8.79Z"/>
        <path class="cls-1" d="M665.38,698.37c0,6.35-5.13,10.99-11.47,10.99s-11.38-4.61-11.38-10.99,5.22-10.99,11.51-10.99,11.35,4.64,11.35,10.99ZM647.77,698.4c0,3.51,2.56,6.41,6.2,6.41s6.16-2.9,6.16-6.41-2.53-6.41-6.16-6.41-6.2,2.87-6.2,6.41Z"/>
        <path class="cls-1" d="M692.41,704.54h-8.54l-1.74,4.52h-5.22l8.79-21.36h5.1l8.76,21.36h-5.37l-1.77-4.52ZM690.97,700.81l-2.84-7.26-2.81,7.26h5.65Z"/>
        <path class="cls-1" d="M718.67,709.05h-14.98v-21.36h5.22v17.12h9.77v4.24Z"/>
        <path class="cls-1" d="M725.63,709.05v-17.03h-6.84v-4.33h18.92v4.33h-6.87v17.03h-5.22Z"/>
        <path class="cls-1" d="M742.02,687.69h14.98v4.24h-9.77v4.3h8.76v4.06h-8.76v4.73h9.86v4.03h-15.08v-21.36Z"/>
        <path class="cls-1" d="M762.89,687.69h9c4.88,0,7.39,2.84,7.39,6.59,0,2.99-1.89,5.31-4.7,6.23l6.9,8.54h-6.23l-5.98-8h-1.22v8h-5.16v-21.36ZM768.05,692v5.28h2.99c2.08,0,3.11-1.1,3.11-2.66s-1.04-2.62-3.11-2.62h-2.99Z"/>
        <path class="cls-1" d="M790.32,709.05h-4.85v-21.36h4.82l9,11.72,1.28,1.77-.03-1.77-.06-11.72h4.82v21.36h-4.7l-9.25-12.05-1.16-1.56.06,1.59.06,12.02Z"/>
        <path class="cls-1" d="M824.96,704.54h-8.54l-1.74,4.52h-5.22l8.79-21.36h5.1l8.76,21.36h-5.37l-1.77-4.52ZM823.52,700.81l-2.84-7.26-2.81,7.26h5.65Z"/>
        <path class="cls-1" d="M838.75,709.05v-17.03h-6.84v-4.33h18.92v4.33h-6.87v17.03h-5.22Z"/>
        <path class="cls-1" d="M855.13,687.69h5.22v21.36h-5.22v-21.36Z"/>
        <path class="cls-1" d="M878.29,709.05h-5.1l-8.76-21.36h5.49l5.92,15.32,5.86-15.32h5.37l-8.79,21.36Z"/>
        <path class="cls-1" d="M911.99,698.37c0,6.35-5.13,10.99-11.47,10.99s-11.38-4.61-11.38-10.99,5.22-10.99,11.51-10.99,11.35,4.64,11.35,10.99ZM894.38,698.4c0,3.51,2.56,6.41,6.2,6.41s6.16-2.9,6.16-6.41-2.53-6.41-6.16-6.41-6.2,2.87-6.2,6.41Z"/>
        <path class="cls-1" d="M916.49,702.8c3.3,1.98,5.43,2.59,7.26,2.59s2.81-.76,2.81-1.98c0-.95-.58-1.65-2.23-2.32l-3.81-1.59c-3.02-1.25-4.36-3.14-4.36-5.71,0-3.69,2.84-6.41,7.87-6.41,2.84,0,5.04.73,6.47,1.62v4.97c-2.81-1.92-4.97-2.5-6.77-2.5-1.56,0-2.5.79-2.5,1.83,0,.85.55,1.56,2.11,2.2l3.72,1.53c3.33,1.37,4.73,3.17,4.73,5.86,0,3.78-3.08,6.47-7.97,6.47-2.9,0-5.37-.67-7.32-1.83v-4.73Z"/>
      </g>
    </g>
  </g>
</svg>