<?xml version="1.0" encoding="UTF-8"?> <svg xmlns="http://www.w3.org/2000/svg" id="Layer_1" data-name="Layer 1" viewBox="0 0 250.37 54.08"><defs><style> .cls-1 { fill: #8dc440; } .cls-1, .cls-2, .cls-3, .cls-4, .cls-5, .cls-6, .cls-7, .cls-8 { stroke-width: 0px; } .cls-2 { fill: #2aa9e0; } .cls-3 { fill: #e6ac27; } .cls-4 { fill: #9d4f9d; } .cls-5 { fill: #08b690; } .cls-6, .cls-7 { fill: #66338e; } .cls-7 { fill-rule: evenodd; } .cls-8 { fill: #f36c25; } </style></defs><g id="Layer_1-2" data-name="Layer 1"><g><g><path class="cls-1" d="M15.1,36.03c1.01,2.88,2.37,5.53,4.11,7.95.43-2.8,1-5.47,1.67-7.99-1.83-.09-3.75-.08-5.78.04h0Z"></path><path class="cls-8" d="M13.01,7.3c.78-1.92,1.65-3.49,2.44-4.71-2.49,1.18-4.77,2.74-6.77,4.59.14.2,1.17,1.62,3.13,3.66.37-1.33.78-2.51,1.2-3.54h0Z"></path><path class="cls-3" d="M39.48,2.99c-2.95-1.53-6.22-2.53-9.68-2.88,1.97,2.3,3.73,4.9,5.24,7.78,1.94-2.39,3.53-4.03,4.43-4.9Z"></path><path class="cls-3" d="M11.67,32.24c-.87-4.04-1.22-7.68-1.22-10.92,0-2.67.24-5.06.61-7.17-2.33-2.26-3.77-4.07-4.4-4.89C2.51,14.01,0,20.22,0,27.03c0,2.98.48,5.84,1.37,8.52,3.73-1.07,7.26-1.74,10.58-2.12-.1-.4-.19-.79-.28-1.2Z"></path><path class="cls-8" d="M12.75,36.23c-3.23.33-6.68.97-10.33,2,3.08,6.76,8.86,12.04,15.96,14.44.07-1.88.21-3.71.41-5.48-2.68-3.23-4.69-6.87-6.04-10.96h0Z"></path><path class="cls-2" d="M38.56,37.1c.08-2.41,0-4.91-.23-7.45-4.23-1.23-7.98-2.74-11.26-4.34-1.09,2.44-2.13,5.13-3.05,8.05,5,.52,9.2,1.68,12.49,2.91.71.27,1.4.55,2.05.83Z"></path><path class="cls-5" d="M21.69,33.17c.99-3.24,2.14-6.22,3.35-8.9-2.84-1.52-5.27-3.08-7.3-4.54-1.76-1.27-3.31-2.53-4.65-3.71-.57,4.2-.54,9.44.82,15.74.11.5.22.99.35,1.47,2.63-.19,5.11-.19,7.43-.05h0Z"></path><path class="cls-4" d="M41.35,38.41c3.83,1.95,6.32,3.9,7.39,4.81,2.36-3.15,4.05-6.84,4.85-10.84-4.46-.34-8.56-1.03-12.33-1.95.21,2.72.23,5.4.09,7.98Z"></path><path class="cls-8" d="M36.17,10.16c2.34,5.07,3.96,10.83,4.76,17.04,0,.07.02.14.03.21,3.92,1.02,8.25,1.78,12.98,2.14.02,0,.04,0,.06.01.08-.83.12-1.67.12-2.53,0-9.61-5.01-18.05-12.57-22.85-.65.61-2.75,2.63-5.38,5.98Z"></path><path class="cls-5" d="M37.96,26.56c-.72-4.96-1.99-9.6-3.75-13.77-.86,1.21-1.75,2.54-2.64,3.99-1.07,1.73-2.18,3.72-3.28,5.94,2.84,1.4,6.07,2.72,9.67,3.84Z"></path><path class="cls-6" d="M38.77,51.43c3.08-1.48,5.83-3.53,8.13-6-.83-.7-2.79-2.26-5.81-3.91-.42,3.67-1.2,7.05-2.32,9.91Z"></path><path class="cls-4" d="M35.37,38.9c-3.18-1.19-7.27-2.29-12.16-2.74-.87,3.19-1.57,6.63-2.03,10.29,2.48,2.81,5.53,5.28,9.18,7.44,1.57-.19,3.1-.52,4.58-.96,1.81-3.26,2.98-7.73,3.44-12.78-.93-.43-1.94-.85-3.01-1.25h0Z"></path><path class="cls-6" d="M20.86,49.48c-.11,1.26-.18,2.54-.23,3.85,1.86.45,3.79.71,5.77.76-2.05-1.42-3.9-2.95-5.54-4.61h0Z"></path><path class="cls-1" d="M13.69,12.7c1.56,1.47,3.5,3.12,5.82,4.79,1.88,1.35,4.12,2.79,6.74,4.19,1.14-2.31,2.31-4.38,3.42-6.18,1.18-1.91,2.34-3.61,3.45-5.11-1.95-3.98-4.37-7.46-7.2-10.27-.04-.04-.07-.08-.1-.12-2.16.1-4.26.45-6.26,1.02-.54.54-2.74,2.93-4.49,7.27-.5,1.24-.98,2.7-1.38,4.4h0Z"></path></g><g><path class="cls-6" d="M83.95,37.5v-15.24c0-.34.34-.62,1.92-.62s1.92.29,1.92.62v14.52c0,.8.36,1.12.99,1.12h.54c.26,0,.36.13.36.34,0,.6-1.43,2.36-2.7,2.36-1.92,0-3.04-1.17-3.04-3.09h0Z"></path><path class="cls-6" d="M90.88,33.65c0-4.62,3.19-6.83,6.86-6.83s6.86,2.21,6.86,6.83-3.22,6.91-6.86,6.91-6.86-2.26-6.86-6.91ZM100.46,33.63c0-3.19-1.25-4.31-2.73-4.31s-2.75,1.12-2.75,4.31,1.27,4.31,2.75,4.31,2.73-1.12,2.73-4.31Z"></path><path class="cls-6" d="M115.21,37.5v-5.92c0-1.25-.65-1.82-1.79-1.82-1.22,0-2.6,1.22-2.6,1.82v8.13c0,.31-.34.62-1.92.62s-1.92-.31-1.92-.62v-9.09c0-1.12-.73-1.51-.73-1.92,0-.6,2.16-1.87,2.96-1.87.67,0,.96.47,1.35,1.25l.16.31c.86-.68,2.6-1.56,4.41-1.56,2.26,0,3.92,1.35,3.92,3.53v6.42c0,.8.39,1.12.99,1.12h.55c.29,0,.36.13.36.34,0,.6-1.45,2.36-2.7,2.36-1.92,0-3.04-1.17-3.04-3.09h0Z"></path><path class="cls-6" d="M130.84,39.6s-1.35.99-3.12.99c-2.57,0-5.56-1.97-5.56-6.21,0-5.53,4.08-7.56,7.9-7.56,2.73,0,4.62,1.07,4.62,1.79v12.47c0,2.91-2.13,5.53-5.97,5.53-2.1,0-4.1-.81-4.36-1.38-.31-.78-.47-1.64-.47-2.13,0-.26.13-.39.36-.39.44,0,1.77.93,3.74.93,1.74,0,2.86-.86,2.86-2.73v-1.33ZM130.84,30.28c0-.44-.42-.88-1.22-.88-1.74,0-3.38,1.17-3.38,4.8,0,2.96,1.4,3.77,2.7,3.77,1.01,0,1.9-.8,1.9-1.45v-6.23h0Z"></path><path class="cls-6" d="M136.86,38.3c0-.57,1.32-2.08,1.77-2.08.49,0,1.9,1.69,3.79,1.69.94,0,1.4-.49,1.4-1.25,0-.99-1.32-1.35-2.78-1.87-1.77-.65-3.71-1.51-3.71-3.69,0-2.6,2.26-4.29,5.53-4.29,2.91,0,4.31,1.2,4.31,1.79s-1.25,2.08-1.77,2.08c-.36,0-1.3-1.35-2.88-1.35-.86,0-1.43.52-1.43,1.22,0,.91,1.01,1.25,2.23,1.66,1.9.62,4.31,1.35,4.31,3.97s-2.23,4.39-5.32,4.39-5.45-1.74-5.45-2.29h0Z"></path><path class="cls-6" d="M153.56,23.63c0,1.43-.65,1.97-2.08,1.97s-2.08-.54-2.08-1.97.65-2,2.08-2,2.08.6,2.08,2ZM153.4,36.77c0,.8.39,1.12.99,1.12h.54c.29,0,.36.13.36.34,0,.6-1.43,2.36-2.67,2.36-1.92,0-3.06-1.17-3.06-3.09v-9.79c0-.34.36-.62,1.92-.62s1.92.29,1.92.62v9.06h0Z"></path><path class="cls-6" d="M208.52,33.65c0-4.62,3.19-6.83,6.86-6.83s6.86,2.21,6.86,6.83-3.22,6.91-6.86,6.91-6.86-2.26-6.86-6.91ZM218.1,33.63c0-3.19-1.25-4.31-2.73-4.31s-2.75,1.12-2.75,4.31,1.27,4.31,2.75,4.31,2.73-1.12,2.73-4.31Z"></path><path class="cls-6" d="M224.54,46.2v-15.58c0-1.12-.73-1.51-.73-1.92,0-.6,2.13-1.87,2.93-1.87s1.07.57,1.53,1.56c.16-.18,1.69-1.56,3.58-1.56,2.81,0,5.22,2,5.22,6.26,0,5.22-2.78,7.51-6.03,7.51-1.27,0-2.67-.62-2.67-.65v6.26c0,.34-.36.62-1.92.62s-1.92-.29-1.92-.62h0ZM233.03,33.45c0-3.09-1.22-3.82-2.57-3.82-1.14,0-2.08,1.01-2.08,1.46v5.71c0,.65.83,1.38,1.82,1.38,1.53,0,2.83-1.38,2.83-4.73h0Z"></path><path class="cls-6" d="M238.43,34.04c0-5.12,3.35-7.22,6.67-7.22,3.53,0,5.27,1.66,5.27,3.82,0,3.48-4.52,4.88-7.61,4.96.57,1.58,2.03,2.08,3.51,2.08,2,0,3.12-1.17,3.53-1.17.18,0,.36.1.36.36,0,.42-.18,1.35-.49,2.13-.21.54-1.84,1.58-4.1,1.58-4.1,0-7.14-2.13-7.14-6.54h0ZM242.53,33.63c2.08-.21,3.97-1.32,3.97-3.22,0-.73-.57-1.25-1.27-1.25-1.3,0-2.6,1.19-2.7,4.47h0Z"></path><path class="cls-6" d="M82.06,39.24l-5.9-15.56c-.23-.64-.78-.83-2.26-.83s-2.02.19-2.26.83l-5.87,15.56c-.1.31-.18.47-.18.68,0,.28.44.41,2,.41,1.45,0,1.97-.13,2.13-.52l1-2.92c.46-.28,1.02-.49,1.67-.57,1.75-.16,3.42.33,4.91,1.23l.78,2.26c.16.39.68.52,2.13.52,1.56,0,2.03-.13,2.03-.41,0-.21-.08-.37-.18-.68h0ZM72,33.18l1.59-4.64c.05-.15.13-.36.31-.36s.26.21.31.36l2.05,5.97c-1.33-.77-2.78-1.26-4.26-1.32Z"></path><path class="cls-6" d="M183.21,36.51c-.41,0-1.53,1.17-3.53,1.17-1.48,0-2.93-.49-3.51-2.08,3.09-.08,7.61-1.48,7.61-4.96,0-2.16-1.74-3.82-5.27-3.82-3.07,0-6.16,1.8-6.61,6.12-.9-.17-1.79-.4-2.66-.71v-9.98c0-.34-.36-.62-1.92-.62s-1.92.29-1.92.62v5.04s-.93-.47-2.16-.47c-2.41,0-6.6,1.69-6.6,7.66,0,4.26,2.86,6.1,5.64,6.1,2.26,0,3.64-1.32,3.64-1.32,0,0,.96,1.32,2.52,1.32,1.22,0,2.7-1.74,2.7-2.36,0-.21-.1-.34-.39-.34h-.52c-.6,0-.99-.31-.99-1.12v-2.67c.69.31,1.4.57,2.09.77.19.06.38.1.56.15.42,3.75,3.3,5.56,7.08,5.56,2.26,0,3.9-1.04,4.1-1.58.31-.78.49-1.71.49-2.13,0-.26-.18-.36-.36-.36h0ZM165.37,36.51c0,.65-.83,1.45-1.92,1.45-1.27,0-2.67-.96-2.67-3.77,0-3.64,1.71-4.73,3.19-4.73.83,0,1.4.49,1.4.99v6.05h0ZM178.64,29.16c.7,0,1.27.52,1.27,1.25,0,1.9-1.9,3.01-3.97,3.22.1-3.27,1.4-4.47,2.7-4.47h0Z"></path><path class="cls-7" d="M204.24,22.93c-1.61,0-1.92.29-1.92.6v7.14c-2.28-.7-4.72-.68-6.99.06v-7.2c0-.31-.34-.6-1.92-.6s-1.92.29-1.92.6v16.21c0,.31.31.6,1.92.6s1.92-.29,1.92-.6v-5.65c2.27-.74,4.71-.76,6.99-.06v5.7c0,.31.31.6,1.92.6s1.92-.29,1.92-.6v-16.21c0-.31-.34-.6-1.92-.6Z"></path></g></g></g></svg> 