<?xml version="1.0" encoding="UTF-8"?>
<svg id="Capa_1" data-name="Capa 1" xmlns="http://www.w3.org/2000/svg" viewBox="0 0 526 225.91">
  <defs>
    <style>
      .cls-1, .cls-2 {
        fill: #343433;
      }

      .cls-3 {
        fill: #333433;
      }

      .cls-4 {
        fill: none;
        stroke: #1e1f1d;
        stroke-width: 1.79px;
      }

      .cls-4, .cls-2 {
        stroke-miterlimit: 10;
      }

      .cls-2 {
        stroke: #343433;
        stroke-width: .6px;
      }

      .cls-5 {
        fill: #353533;
      }
    </style>
  </defs>
  <g>
    <path class="cls-2" d="M49.32,169.37c0,.95-.77,1.72-1.72,1.72s-1.72-.77-1.72-1.72c0-.28.07-.54.18-.77.28-.56.87-.95,1.54-.95s1.26.38,1.54.95c.12.23.19.5.19.78Z"/>
    <path class="cls-2" d="M45.73,188.84c0-.95.77-1.72,1.72-1.72s1.72.77,1.72,1.72c0,.28-.07.54-.18.77-.28.56-.87.95-1.54.95s-1.26-.38-1.54-.95c-.12-.23-.19-.5-.19-.78Z"/>
    <path class="cls-2" d="M57.19,180.9c-.95,0-1.72-.77-1.72-1.72s.77-1.72,1.72-1.72c.28,0,.54.07.77.18.56.28.95.87.95,1.54s-.38,1.26-.95,1.54c-.23.12-.5.19-.78.19Z"/>
    <path class="cls-2" d="M37.73,177.31c.95,0,1.72.82,1.72,1.83s-.77,1.83-1.72,1.83c-.28,0-.54-.07-.77-.19-.56-.3-.95-.92-.95-1.63s.38-1.33.95-1.63c.23-.13.5-.2.78-.2Z"/>
    <path class="cls-2" d="M55.75,173.47c-.67.67-1.76.67-2.44,0s-.67-1.76,0-2.44c.2-.2.43-.34.68-.42.6-.2,1.28-.06,1.76.42s.62,1.16.42,1.76c-.08.25-.22.48-.42.68Z"/>
    <path class="cls-2" d="M39.44,184.7c.67-.67,1.76-.67,2.44,0s.67,1.76,0,2.44c-.2.2-.43.34-.68.42-.6.2-1.28.06-1.76-.42s-.62-1.16-.42-1.76c.08-.25.22-.48.42-.68Z"/>
    <path class="cls-2" d="M53.16,187.19c-.67-.67-.67-1.76,0-2.44s1.76-.67,2.44,0c.2.2.34.43.42.68.2.6.06,1.28-.42,1.76s-1.16.62-1.76.42c-.25-.08-.48-.22-.68-.42Z"/>
    <path class="cls-2" d="M41.93,170.89c.67.67.67,1.76,0,2.44-.67.67-1.76.67-2.44,0-.2-.2-.34-.43-.42-.68-.2-.6-.06-1.28.42-1.76s1.16-.62,1.76-.42c.25.08.48.22.68.42Z"/>
  </g>
  <g>
    <g>
      <path class="cls-5" d="M294.14,184v1.64h-9.56v-13.17h9.3v1.64h-7.41v4.05h6.6v1.6h-6.6v4.25h7.68Z"/>
      <path class="cls-5" d="M297.66,172.47h1.88v11.53h7.13v1.64h-9.01v-13.17Z"/>
      <path class="cls-5" d="M314.85,172.47h5.55c4.23,0,7.11,2.67,7.11,6.59s-2.88,6.59-7.11,6.59h-5.55v-13.17ZM320.28,184c3.26,0,5.34-1.99,5.34-4.95s-2.09-4.95-5.34-4.95h-3.56v9.9h3.56Z"/>
      <path class="cls-5" d="M330.86,172.47h1.88v13.17h-1.88v-13.17Z"/>
      <path class="cls-5" d="M345.56,182.35h-7l-1.45,3.29h-1.94l5.96-13.17h1.86l5.98,13.17h-1.98l-1.45-3.29ZM344.9,180.84l-2.84-6.45-2.84,6.45h5.68ZM342.36,171.4h-1.69l2.56-2.45h2.3l-3.16,2.45Z"/>
      <path class="cls-5" d="M351.42,172.47h1.88v11.53h7.13v1.64h-9.01v-13.17Z"/>
      <path class="cls-5" d="M361.75,179.05c0-3.86,2.97-6.74,7.02-6.74s6.98,2.86,6.98,6.74-2.97,6.74-6.98,6.74-7.02-2.88-7.02-6.74ZM373.87,179.05c0-2.92-2.18-5.06-5.1-5.06s-5.14,2.15-5.14,5.06,2.18,5.06,5.14,5.06,5.1-2.15,5.1-5.06Z"/>
      <path class="cls-5" d="M388.23,178.98h1.81v5.14c-1.32,1.11-3.14,1.67-4.99,1.67-4.05,0-7.02-2.84-7.02-6.74s2.97-6.74,7.06-6.74c2.09,0,3.86.7,5.06,2.03l-1.17,1.17c-1.09-1.05-2.33-1.52-3.82-1.52-3.05,0-5.25,2.13-5.25,5.06s2.2,5.06,5.23,5.06c1.11,0,2.15-.24,3.09-.85v-4.29Z"/>
      <path class="cls-5" d="M393.03,179.05c0-3.86,2.97-6.74,7.02-6.74s6.98,2.86,6.98,6.74-2.97,6.74-6.98,6.74-7.02-2.88-7.02-6.74ZM405.15,179.05c0-2.92-2.18-5.06-5.1-5.06s-5.14,2.15-5.14,5.06,2.18,5.06,5.14,5.06,5.1-2.15,5.1-5.06Z"/>
      <path class="cls-5" d="M414.71,184.13l.7-1.47c.98.88,2.65,1.52,4.35,1.52,2.28,0,3.26-.88,3.26-2.03,0-3.22-7.98-1.18-7.98-6.08,0-2.03,1.58-3.76,5.04-3.76,1.54,0,3.14.41,4.23,1.17l-.62,1.51c-1.15-.73-2.45-1.07-3.61-1.07-2.24,0-3.2.94-3.2,2.09,0,3.22,7.98,1.2,7.98,6.04,0,2.01-1.62,3.75-5.1,3.75-2.01,0-3.99-.68-5.04-1.66Z"/>
      <path class="cls-5" d="M427,179.05c0-3.86,2.97-6.74,7.02-6.74s6.98,2.86,6.98,6.74-2.97,6.74-6.98,6.74-7.02-2.88-7.02-6.74ZM439.12,179.05c0-2.92-2.18-5.06-5.1-5.06s-5.14,2.15-5.14,5.06,2.18,5.06,5.14,5.06,5.1-2.15,5.1-5.06Z"/>
      <path class="cls-5" d="M443.28,179.05c0-3.9,2.97-6.74,6.98-6.74,2.03,0,3.8.7,5.01,2.05l-1.22,1.18c-1.02-1.07-2.26-1.56-3.71-1.56-2.97,0-5.17,2.15-5.17,5.06s2.2,5.06,5.17,5.06c1.45,0,2.69-.51,3.71-1.58l1.22,1.18c-1.2,1.36-2.97,2.07-5.02,2.07-3.99,0-6.96-2.84-6.96-6.74Z"/>
      <path class="cls-5" d="M458.43,172.47h1.88v13.17h-1.88v-13.17Z"/>
      <path class="cls-5" d="M473.13,182.35h-7l-1.45,3.29h-1.94l5.96-13.17h1.86l5.98,13.17h-1.98l-1.45-3.29ZM472.47,180.84l-2.84-6.45-2.84,6.45h5.68Z"/>
      <path class="cls-5" d="M478.98,172.47h1.88v11.53h7.13v1.64h-9.01v-13.17Z"/>
    </g>
    <g>
      <path class="cls-5" d="M83.69,177.06c0,2.86-2.07,4.59-5.49,4.59h-3.25v3.99h-1.88v-13.17h5.14c3.42,0,5.49,1.73,5.49,4.59ZM81.8,177.06c0-1.88-1.26-2.95-3.67-2.95h-3.2v5.91h3.2c2.41,0,3.67-1.07,3.67-2.95Z"/>
      <path class="cls-5" d="M86.46,172.47h1.88v11.53h7.13v1.64h-9.01v-13.17Z"/>
      <path class="cls-5" d="M106.08,182.35h-7l-1.45,3.29h-1.94l5.96-13.17h1.86l5.98,13.17h-1.98l-1.45-3.29ZM105.42,180.84l-2.84-6.45-2.84,6.45h5.68Z"/>
      <path class="cls-5" d="M113.42,174.11h-4.52v-1.64h10.89v1.64h-4.52v11.53h-1.86v-11.53Z"/>
      <path class="cls-5" d="M129.59,182.35h-7l-1.45,3.29h-1.94l5.96-13.17h1.86l5.98,13.17h-1.98l-1.45-3.29ZM128.93,180.84l-2.84-6.45-2.84,6.45h5.68Z"/>
      <path class="cls-5" d="M136.86,174.11v4.59h6.6v1.62h-6.6v5.33h-1.88v-13.17h9.29v1.64h-7.41Z"/>
      <path class="cls-5" d="M145.7,179.05c0-3.86,2.97-6.74,7.02-6.74s6.98,2.86,6.98,6.74-2.97,6.74-6.98,6.74-7.02-2.88-7.02-6.74ZM157.82,179.05c0-2.92-2.18-5.06-5.1-5.06s-5.14,2.15-5.14,5.06,2.18,5.06,5.14,5.06,5.1-2.15,5.1-5.06Z"/>
      <path class="cls-5" d="M171.39,185.64l-2.84-4.05c-.26.02-.55.04-.83.04h-3.25v4.01h-1.88v-13.17h5.14c3.43,0,5.49,1.73,5.49,4.59,0,2.03-1.05,3.5-2.9,4.16l3.12,4.42h-2.05ZM171.33,177.06c0-1.88-1.26-2.95-3.67-2.95h-3.2v5.93h3.2c2.41,0,3.67-1.09,3.67-2.97Z"/>
      <path class="cls-5" d="M188.48,185.64l-.02-9.6-4.76,8h-.87l-4.76-7.94v9.54h-1.81v-13.17h1.54l5.49,9.26,5.42-9.26h1.54l.02,13.17h-1.81Z"/>
      <path class="cls-5" d="M202.63,182.35h-7l-1.45,3.29h-1.94l5.96-13.17h1.86l5.98,13.17h-1.98l-1.45-3.29ZM201.98,180.84l-2.84-6.45-2.84,6.45h5.68Z"/>
      <path class="cls-5" d="M206.81,184.13l.7-1.47c.98.88,2.65,1.52,4.35,1.52,2.28,0,3.26-.88,3.26-2.03,0-3.22-7.98-1.18-7.98-6.08,0-2.03,1.58-3.76,5.04-3.76,1.54,0,3.14.41,4.23,1.17l-.62,1.51c-1.15-.73-2.45-1.07-3.61-1.07-2.24,0-3.2.94-3.2,2.09,0,3.22,7.98,1.2,7.98,6.04,0,2.01-1.62,3.75-5.1,3.75-2.01,0-3.99-.68-5.04-1.66Z"/>
      <path class="cls-5" d="M235.4,177.06c0,2.86-2.07,4.59-5.49,4.59h-3.25v3.99h-1.88v-13.17h5.14c3.43,0,5.49,1.73,5.49,4.59ZM233.52,177.06c0-1.88-1.26-2.95-3.67-2.95h-3.2v5.91h3.2c2.41,0,3.67-1.07,3.67-2.95Z"/>
      <path class="cls-5" d="M245.9,182.35h-7l-1.45,3.29h-1.94l5.96-13.17h1.86l5.98,13.17h-1.98l-1.45-3.29ZM245.24,180.84l-2.84-6.45-2.84,6.45h5.68Z"/>
      <path class="cls-5" d="M260.09,185.64l-2.84-4.05c-.26.02-.55.04-.83.04h-3.25v4.01h-1.88v-13.17h5.14c3.42,0,5.49,1.73,5.49,4.59,0,2.03-1.05,3.5-2.9,4.16l3.12,4.42h-2.05ZM260.04,177.06c0-1.88-1.26-2.95-3.67-2.95h-3.2v5.93h3.2c2.41,0,3.67-1.09,3.67-2.97Z"/>
      <path class="cls-5" d="M273.36,182.35h-7l-1.45,3.29h-1.94l5.96-13.17h1.86l5.98,13.17h-1.98l-1.45-3.29ZM272.7,180.84l-2.84-6.45-2.84,6.45h5.68Z"/>
    </g>
  </g>
  <line class="cls-4" x1="35.11" y1="152.15" x2="488" y2="152.15"/>
  <g>
    <path class="cls-3" d="M35.11,126.89c0-4.46,3.07-7.72,7.2-7.72,2.1,0,3.92.8,5.17,2.35l-1.26,1.36c-1.05-1.23-2.33-1.79-3.83-1.79-3.07,0-5.34,2.46-5.34,5.8s2.27,5.8,5.34,5.8c1.5,0,2.78-.58,3.83-1.81l1.26,1.36c-1.24,1.55-3.07,2.37-5.19,2.37-4.12,0-7.18-3.26-7.18-7.72Z"/>
    <path class="cls-3" d="M48.61,128.73c0-3.41,2.27-5.82,5.36-5.82s5.34,2.41,5.34,5.82-2.25,5.84-5.34,5.84-5.36-2.44-5.36-5.84ZM57.42,128.73c0-2.44-1.48-4.01-3.46-4.01s-3.48,1.57-3.48,4.01,1.49,4.03,3.48,4.03,3.46-1.59,3.46-4.03Z"/>
    <path class="cls-3" d="M71.65,127.86v6.58h-1.86v-6.34c0-2.24-1.01-3.34-2.78-3.34-1.98,0-3.26,1.31-3.26,3.79v5.89h-1.86v-11.43h1.79v1.73c.76-1.16,2.08-1.83,3.71-1.83,2.5,0,4.27,1.6,4.27,4.96Z"/>
    <path class="cls-3" d="M73.81,133.23l.78-1.64c.87.69,2.27,1.19,3.61,1.19,1.73,0,2.45-.58,2.45-1.55,0-2.56-6.5-.34-6.5-4.89,0-2.05,1.65-3.43,4.29-3.43,1.34,0,2.86.39,3.75,1.03l-.8,1.64c-.93-.67-1.96-.91-2.97-.91-1.63,0-2.43.67-2.43,1.57,0,2.7,6.52.5,6.52,4.94,0,2.07-1.71,3.38-4.45,3.38-1.71,0-3.4-.58-4.25-1.34Z"/>
    <path class="cls-3" d="M94.1,129.42h-8.35c.23,2,1.69,3.34,3.73,3.34,1.2,0,2.21-.45,2.97-1.38l1.03,1.34c-.93,1.21-2.35,1.85-4.06,1.85-3.32,0-5.53-2.44-5.53-5.84s2.19-5.82,5.16-5.82,5.09,2.37,5.09,5.89c0,.17-.02.43-.04.62ZM85.75,127.93h6.6c-.19-1.92-1.5-3.28-3.3-3.28s-3.11,1.34-3.3,3.28Z"/>
    <path class="cls-3" d="M93.16,138.06l.6-1.6c.37.34.91.54,1.51.54.99,0,1.53-.69,1.53-2v-11.99h1.86v11.94c0,2.33-1.17,3.8-3.28,3.8-.85,0-1.71-.22-2.23-.69ZM96.48,119.48c0-.75.54-1.36,1.26-1.36s1.26.58,1.26,1.32c0,.78-.52,1.38-1.26,1.38s-1.26-.58-1.26-1.34Z"/>
    <path class="cls-3" d="M101.28,128.73c0-3.41,2.27-5.82,5.36-5.82s5.34,2.41,5.34,5.82-2.25,5.84-5.34,5.84-5.36-2.44-5.36-5.84ZM110.09,128.73c0-2.44-1.48-4.01-3.46-4.01s-3.48,1.57-3.48,4.01,1.49,4.03,3.48,4.03,3.46-1.59,3.46-4.03Z"/>
    <path class="cls-3" d="M120.05,119.35h1.94v13.22h7.36v1.87h-9.3v-15.09Z"/>
    <path class="cls-3" d="M139.52,127.54v6.9h-1.77v-1.51c-.62,1.03-1.77,1.64-3.38,1.64-2.33,0-3.81-1.38-3.81-3.36,0-1.83,1.07-3.34,4.14-3.34h2.95v-.41c0-1.75-.91-2.76-2.76-2.76-1.22,0-2.47.47-3.26,1.23l-.78-1.55c1.07-.95,2.6-1.47,4.25-1.47,2.82,0,4.41,1.51,4.41,4.63ZM137.66,130.95v-1.6h-2.87c-1.84,0-2.37.8-2.37,1.77,0,1.14.85,1.85,2.27,1.85s2.5-.71,2.97-2.03Z"/>
    <path class="cls-3" d="M148.76,133.77c-.56.54-1.42.8-2.25.8-2.08,0-3.26-1.27-3.26-3.58v-6.27h-1.75v-1.7h1.75v-2.5h1.86v2.5h2.95v1.7h-2.95v6.19c0,1.23.58,1.92,1.61,1.92.54,0,1.07-.19,1.46-.54l.58,1.49Z"/>
    <path class="cls-3" d="M150.68,119.48c0-.75.54-1.36,1.26-1.36s1.26.58,1.26,1.32c0,.78-.52,1.38-1.26,1.38s-1.26-.58-1.26-1.34ZM151.01,123.01h1.86v11.43h-1.86v-11.43Z"/>
    <path class="cls-3" d="M166.2,127.86v6.58h-1.86v-6.34c0-2.24-1.01-3.34-2.78-3.34-1.98,0-3.26,1.31-3.26,3.79v5.89h-1.86v-11.43h1.79v1.73c.76-1.16,2.08-1.83,3.71-1.83,2.5,0,4.27,1.6,4.27,4.96Z"/>
    <path class="cls-3" d="M168.76,128.73c0-3.41,2.27-5.82,5.36-5.82s5.34,2.41,5.34,5.82-2.25,5.84-5.34,5.84-5.36-2.44-5.36-5.84ZM177.57,128.73c0-2.44-1.48-4.01-3.46-4.01s-3.48,1.57-3.48,4.01,1.49,4.03,3.48,4.03,3.46-1.59,3.46-4.03Z"/>
    <path class="cls-3" d="M190.09,127.54v6.9h-1.77v-1.51c-.62,1.03-1.77,1.64-3.38,1.64-2.33,0-3.81-1.38-3.81-3.36,0-1.83,1.07-3.34,4.14-3.34h2.95v-.41c0-1.75-.91-2.76-2.76-2.76-1.22,0-2.47.47-3.26,1.23l-.78-1.55c1.07-.95,2.6-1.47,4.25-1.47,2.82,0,4.41,1.51,4.41,4.63ZM188.23,130.95v-1.6h-2.87c-1.84,0-2.37.8-2.37,1.77,0,1.14.85,1.85,2.27,1.85s2.5-.71,2.97-2.03Z"/>
    <path class="cls-3" d="M210.64,127.86v6.58h-1.86v-6.34c0-2.24-.97-3.34-2.66-3.34-1.86,0-3.09,1.31-3.09,3.79v5.89h-1.86v-6.34c0-2.24-.97-3.34-2.66-3.34-1.86,0-3.09,1.31-3.09,3.79v5.89h-1.86v-11.43h1.79v1.7c.74-1.16,2-1.81,3.55-1.81s2.89.69,3.57,2.11c.78-1.29,2.22-2.11,3.96-2.11,2.5,0,4.21,1.6,4.21,4.96Z"/>
    <path class="cls-3" d="M223.39,129.42h-8.35c.23,2,1.69,3.34,3.73,3.34,1.2,0,2.21-.45,2.97-1.38l1.03,1.34c-.93,1.21-2.35,1.85-4.06,1.85-3.32,0-5.53-2.44-5.53-5.84s2.19-5.82,5.16-5.82,5.09,2.37,5.09,5.89c0,.17-.02.43-.04.62ZM215.04,127.93h6.6c-.19-1.92-1.5-3.28-3.3-3.28s-3.11,1.34-3.3,3.28Z"/>
    <path class="cls-3" d="M231.54,122.91v2c-.16-.02-.29-.02-.43-.02-2,0-3.24,1.36-3.24,3.86v5.69h-1.86v-11.43h1.79v1.92c.66-1.34,1.94-2.03,3.75-2.03Z"/>
    <path class="cls-3" d="M233.5,119.48c0-.75.54-1.36,1.26-1.36s1.26.58,1.26,1.32c0,.78-.52,1.38-1.26,1.38s-1.26-.58-1.26-1.34ZM233.83,123.01h1.86v11.43h-1.86v-11.43Z"/>
    <path class="cls-3" d="M238.29,128.73c0-3.41,2.27-5.82,5.44-5.82,1.84,0,3.38.84,4.2,2.44l-1.42,1.01c-.66-1.12-1.67-1.64-2.8-1.64-2.02,0-3.53,1.57-3.53,4.01s1.51,4.03,3.53,4.03c1.13,0,2.14-.52,2.8-1.64l1.42.99c-.82,1.6-2.35,2.46-4.2,2.46-3.17,0-5.44-2.44-5.44-5.84Z"/>
    <path class="cls-3" d="M258.49,127.54v6.9h-1.77v-1.51c-.62,1.03-1.77,1.64-3.38,1.64-2.33,0-3.81-1.38-3.81-3.36,0-1.83,1.07-3.34,4.14-3.34h2.95v-.41c0-1.75-.91-2.76-2.76-2.76-1.22,0-2.47.47-3.26,1.23l-.78-1.55c1.07-.95,2.6-1.47,4.25-1.47,2.82,0,4.41,1.51,4.41,4.63ZM256.62,130.95v-1.6h-2.87c-1.84,0-2.37.8-2.37,1.77,0,1.14.85,1.85,2.27,1.85s2.5-.71,2.97-2.03Z"/>
    <path class="cls-3" d="M271.71,127.86v6.58h-1.86v-6.34c0-2.24-1.01-3.34-2.78-3.34-1.98,0-3.26,1.31-3.26,3.79v5.89h-1.86v-11.43h1.79v1.73c.76-1.16,2.08-1.83,3.71-1.83,2.5,0,4.27,1.6,4.27,4.96Z"/>
    <path class="cls-3" d="M274.26,128.73c0-3.41,2.27-5.82,5.36-5.82s5.34,2.41,5.34,5.82-2.25,5.84-5.34,5.84-5.36-2.44-5.36-5.84ZM283.08,128.73c0-2.44-1.48-4.01-3.46-4.01s-3.48,1.57-3.48,4.01,1.5,4.03,3.48,4.03,3.46-1.59,3.46-4.03Z"/>
    <path class="cls-3" d="M302.48,118.44v16h-1.79v-1.81c-.84,1.29-2.16,1.94-3.67,1.94-3.01,0-5.2-2.35-5.2-5.84s2.19-5.82,5.2-5.82c1.46,0,2.74.6,3.59,1.83v-6.29h1.86ZM300.63,128.73c0-2.44-1.5-4.01-3.46-4.01s-3.48,1.57-3.48,4.01,1.5,4.03,3.48,4.03,3.46-1.59,3.46-4.03Z"/>
    <path class="cls-3" d="M315.27,129.42h-8.35c.23,2,1.69,3.34,3.73,3.34,1.2,0,2.21-.45,2.97-1.38l1.03,1.34c-.93,1.21-2.35,1.85-4.06,1.85-3.32,0-5.53-2.44-5.53-5.84s2.19-5.82,5.16-5.82,5.09,2.37,5.09,5.89c0,.17-.02.43-.04.62ZM306.92,127.93h6.6c-.19-1.92-1.5-3.28-3.3-3.28s-3.11,1.34-3.3,3.28Z"/>
    <path class="cls-3" d="M322.27,126.89c0-4.46,3.07-7.72,7.2-7.72,2.1,0,3.92.8,5.17,2.35l-1.26,1.36c-1.05-1.23-2.33-1.79-3.83-1.79-3.07,0-5.34,2.46-5.34,5.8s2.27,5.8,5.34,5.8c1.5,0,2.78-.58,3.83-1.81l1.26,1.36c-1.24,1.55-3.07,2.37-5.19,2.37-4.12,0-7.18-3.26-7.18-7.72Z"/>
    <path class="cls-3" d="M336.82,119.48c0-.75.54-1.36,1.26-1.36s1.26.58,1.26,1.32c0,.78-.52,1.38-1.26,1.38s-1.26-.58-1.26-1.34ZM337.15,123.01h1.86v11.43h-1.86v-11.43Z"/>
    <path class="cls-3" d="M351.82,129.42h-8.35c.23,2,1.69,3.34,3.73,3.34,1.2,0,2.21-.45,2.97-1.38l1.03,1.34c-.93,1.21-2.35,1.85-4.06,1.85-3.32,0-5.53-2.44-5.53-5.84s2.19-5.82,5.16-5.82,5.09,2.37,5.09,5.89c0,.17-.02.43-.04.62ZM343.47,127.93h6.6c-.19-1.92-1.5-3.28-3.3-3.28s-3.11,1.34-3.3,3.28Z"/>
    <path class="cls-3" d="M364.21,127.86v6.58h-1.86v-6.34c0-2.24-1.01-3.34-2.78-3.34-1.98,0-3.26,1.31-3.26,3.79v5.89h-1.86v-11.43h1.79v1.73c.76-1.16,2.08-1.83,3.71-1.83,2.5,0,4.27,1.6,4.27,4.96Z"/>
    <path class="cls-3" d="M366.77,128.73c0-3.41,2.27-5.82,5.44-5.82,1.84,0,3.38.84,4.2,2.44l-1.42,1.01c-.66-1.12-1.67-1.64-2.8-1.64-2.02,0-3.53,1.57-3.53,4.01s1.51,4.03,3.53,4.03c1.13,0,2.14-.52,2.8-1.64l1.42.99c-.82,1.6-2.35,2.46-4.2,2.46-3.17,0-5.44-2.44-5.44-5.84Z"/>
    <path class="cls-3" d="M378.47,119.48c0-.75.54-1.36,1.26-1.36s1.26.58,1.26,1.32c0,.78-.52,1.38-1.26,1.38s-1.26-.58-1.26-1.34ZM378.8,123.01h1.86v11.43h-1.86v-11.43Z"/>
    <path class="cls-3" d="M392.38,127.54v6.9h-1.77v-1.51c-.62,1.03-1.77,1.64-3.38,1.64-2.33,0-3.81-1.38-3.81-3.36,0-1.83,1.07-3.34,4.14-3.34h2.95v-.41c0-1.75-.91-2.76-2.76-2.76-1.22,0-2.47.47-3.26,1.23l-.78-1.55c1.07-.95,2.6-1.47,4.25-1.47,2.82,0,4.41,1.51,4.41,4.63ZM390.51,130.95v-1.6h-2.87c-1.84,0-2.37.8-2.37,1.77,0,1.14.85,1.85,2.27,1.85s2.5-.71,2.97-2.03Z"/>
    <path class="cls-3" d="M394.53,133.23l.78-1.64c.87.69,2.27,1.19,3.61,1.19,1.73,0,2.45-.58,2.45-1.55,0-2.56-6.5-.34-6.5-4.89,0-2.05,1.65-3.43,4.29-3.43,1.34,0,2.86.39,3.75,1.03l-.8,1.64c-.93-.67-1.96-.91-2.97-.91-1.63,0-2.43.67-2.43,1.57,0,2.7,6.52.5,6.52,4.94,0,2.07-1.71,3.38-4.45,3.38-1.71,0-3.4-.58-4.25-1.34Z"/>
    <path class="cls-3" d="M409.81,132.72l.72-1.68c1.01,1.01,2.74,1.75,4.49,1.75,2.35,0,3.36-1.01,3.36-2.33,0-3.69-8.23-1.36-8.23-6.96,0-2.33,1.63-4.31,5.2-4.31,1.59,0,3.24.47,4.37,1.34l-.64,1.72c-1.18-.84-2.52-1.23-3.73-1.23-2.31,0-3.3,1.08-3.3,2.39,0,3.69,8.23,1.38,8.23,6.92,0,2.31-1.67,4.29-5.26,4.29-2.08,0-4.12-.78-5.2-1.9Z"/>
    <path class="cls-3" d="M421.88,128.73c0-3.41,2.27-5.82,5.36-5.82s5.34,2.41,5.34,5.82-2.25,5.84-5.34,5.84-5.36-2.44-5.36-5.84ZM430.7,128.73c0-2.44-1.48-4.01-3.46-4.01s-3.48,1.57-3.48,4.01,1.49,4.03,3.48,4.03,3.46-1.59,3.46-4.03Z"/>
    <path class="cls-3" d="M434.21,128.73c0-3.41,2.27-5.82,5.44-5.82,1.84,0,3.38.84,4.2,2.44l-1.42,1.01c-.66-1.12-1.67-1.64-2.8-1.64-2.02,0-3.53,1.57-3.53,4.01s1.51,4.03,3.53,4.03c1.13,0,2.14-.52,2.8-1.64l1.42.99c-.82,1.6-2.35,2.46-4.2,2.46-3.17,0-5.44-2.44-5.44-5.84Z"/>
    <path class="cls-3" d="M445.92,119.48c0-.75.54-1.36,1.26-1.36s1.26.58,1.26,1.32c0,.78-.52,1.38-1.26,1.38s-1.26-.58-1.26-1.34ZM446.25,123.01h1.86v11.43h-1.86v-11.43Z"/>
    <path class="cls-3" d="M459.82,127.54v6.9h-1.77v-1.51c-.62,1.03-1.77,1.64-3.38,1.64-2.33,0-3.81-1.38-3.81-3.36,0-1.83,1.07-3.34,4.14-3.34h2.95v-.41c0-1.75-.91-2.76-2.76-2.76-1.22,0-2.47.47-3.26,1.23l-.78-1.55c1.07-.95,2.6-1.47,4.25-1.47,2.82,0,4.41,1.51,4.41,4.63ZM457.95,130.95v-1.6h-2.87c-1.84,0-2.37.8-2.37,1.77,0,1.14.85,1.85,2.27,1.85s2.5-.71,2.97-2.03Z"/>
    <path class="cls-3" d="M463.27,118.44h1.86v16h-1.86v-16Z"/>
    <path class="cls-3" d="M477.95,129.42h-8.35c.23,2,1.69,3.34,3.73,3.34,1.2,0,2.21-.45,2.97-1.38l1.03,1.34c-.93,1.21-2.35,1.85-4.06,1.85-3.32,0-5.53-2.44-5.53-5.84s2.19-5.82,5.16-5.82,5.09,2.37,5.09,5.89c0,.17-.02.43-.04.62ZM469.6,127.93h6.6c-.19-1.92-1.5-3.28-3.3-3.28s-3.11,1.34-3.3,3.28Z"/>
    <path class="cls-3" d="M479.27,133.23l.78-1.64c.87.69,2.27,1.19,3.61,1.19,1.73,0,2.45-.58,2.45-1.55,0-2.56-6.51-.34-6.51-4.89,0-2.05,1.65-3.43,4.29-3.43,1.34,0,2.86.39,3.75,1.03l-.8,1.64c-.93-.67-1.96-.91-2.97-.91-1.63,0-2.43.67-2.43,1.57,0,2.7,6.53.5,6.53,4.94,0,2.07-1.71,3.38-4.45,3.38-1.71,0-3.4-.58-4.25-1.34Z"/>
  </g>
  <g>
    <g>
      <path class="cls-1" d="M74.22,41.48c-2.33-2.33-5.38-3.5-8.44-3.5s-6.11,1.17-8.44,3.5c-.54.54-1.02,1.13-1.44,1.74,1.66-2.42,4.45-4.01,7.6-4.01,5.09,0,9.22,4.13,9.22,9.22,0,1.64-.43,3.17-1.17,4.5-.18.34-.39.67-.64.98-.46.62-1,1.18-1.6,1.67l-3.54,3.54-3.84,3.84,3.84,3.84,8.44-8.44c4.66-4.66,4.66-12.22,0-16.88Z"/>
      <path class="cls-1" d="M72.73,48.43c0-5.09-4.13-9.22-9.22-9.22-3.16,0-5.94,1.59-7.6,4.01-.02.03-.05.07-.07.1-.07.1-.14.21-.2.31,0,0,0,.02-.01.02-2.83,4.6-2.26,10.7,1.73,14.69l2.66,2.66,3.84-3.84-2.66-2.66c-2.54-2.54-2.54-6.67,0-9.2,1.23-1.23,2.86-1.91,4.6-1.91s3.37.68,4.6,1.91c2.06,2.06,2.45,5.17,1.17,7.62.75-1.33,1.17-2.87,1.17-4.5Z"/>
      <path class="cls-1" d="M69.14,50.1c0,1.8-1.46,3.25-3.25,3.25s-3.25-1.46-3.25-3.25c0-.53.12-1.02.35-1.46.53-1.07,1.64-1.79,2.91-1.79s2.37.73,2.91,1.79c.22.44.35.94.35,1.47Z"/>
      <path class="cls-1" d="M57.35,95.5c2.33,2.33,5.38,3.5,8.44,3.5s6.11-1.17,8.44-3.5c.54-.54,1.02-1.13,1.44-1.74-1.66,2.42-4.45,4.01-7.6,4.01-5.09,0-9.22-4.13-9.22-9.22,0-1.64.43-3.17,1.17-4.5.18-.34.39-.67.64-.98.46-.62,1-1.18,1.6-1.67l3.54-3.54,3.84-3.84-3.84-3.84-8.44,8.44c-4.66,4.66-4.66,12.22,0,16.88Z"/>
      <path class="cls-1" d="M58.84,88.55c0,5.09,4.13,9.22,9.22,9.22,3.16,0,5.94-1.59,7.6-4.01.02-.03.05-.07.07-.1.07-.1.14-.21.2-.31,0,0,0-.02.01-.02,2.83-4.6,2.26-10.7-1.73-14.69l-2.66-2.66-3.84,3.84,2.66,2.66c2.54,2.54,2.54,6.67,0,9.2-1.23,1.23-2.86,1.91-4.6,1.91s-3.37-.68-4.6-1.91c-2.06-2.06-2.45-5.17-1.17-7.62-.75,1.33-1.17,2.87-1.17,4.5Z"/>
      <path class="cls-1" d="M62.37,86.86c0-1.8,1.46-3.25,3.25-3.25s3.25,1.46,3.25,3.25c0,.53-.12,1.02-.35,1.46-.53,1.07-1.64,1.79-2.91,1.79s-2.37-.73-2.91-1.79c-.22-.44-.35-.94-.35-1.47Z"/>
      <path class="cls-1" d="M92.63,76.93c2.33-2.33,3.5-5.38,3.5-8.44s-1.17-6.11-3.5-8.44c-.54-.54-1.13-1.02-1.74-1.44,2.42,1.66,4.01,4.45,4.01,7.6,0,5.09-4.13,9.22-9.22,9.22-1.64,0-3.17-.43-4.5-1.17-.34-.18-.67-.39-.98-.64-.62-.46-1.18-1-1.67-1.6l-3.54-3.54-3.84-3.84-3.84,3.84,8.44,8.44c4.66,4.66,12.22,4.66,16.88,0Z"/>
      <path class="cls-1" d="M85.68,75.43c5.09,0,9.22-4.13,9.22-9.22,0-3.16-1.59-5.94-4.01-7.6-.03-.02-.07-.05-.1-.07-.1-.07-.21-.14-.31-.2,0,0-.02,0-.02-.01-4.6-2.83-10.7-2.26-14.69,1.73l-2.66,2.66,3.84,3.84,2.66-2.66c2.54-2.54,6.67-2.54,9.2,0,1.23,1.23,1.91,2.86,1.91,4.6s-.68,3.37-1.91,4.6c-2.06,2.06-5.17,2.45-7.62,1.17,1.33.75,2.87,1.17,4.5,1.17Z"/>
      <path class="cls-1" d="M84,71.87c-1.8,0-3.25-1.46-3.25-3.25s1.46-3.25,3.25-3.25c.53,0,1.02.12,1.46.35,1.07.53,1.79,1.64,1.79,2.91s-.73,2.37-1.79,2.91c-.44.22-.94.35-1.47.35Z"/>
      <path class="cls-1" d="M38.61,60.05c-2.33,2.33-3.5,5.38-3.5,8.44s1.17,6.11,3.5,8.44c.54.54,1.13,1.02,1.74,1.44-2.42-1.66-4.01-4.45-4.01-7.6,0-5.09,4.13-9.22,9.22-9.22,1.64,0,3.17.43,4.5,1.17.34.18.67.39.98.64.62.46,1.18,1,1.67,1.6l3.54,3.54,3.84,3.84,3.84-3.84-8.44-8.44c-4.66-4.66-12.22-4.66-16.88,0Z"/>
      <path class="cls-1" d="M45.56,61.55c-5.09,0-9.22,4.13-9.22,9.22,0,3.16,1.59,5.94,4.01,7.6.03.02.07.05.1.07.1.07.21.14.31.2,0,0,.02,0,.02.01,4.6,2.83,10.7,2.26,14.69-1.73l2.66-2.66-3.84-3.84-2.66,2.66c-2.54,2.54-6.67,2.54-9.2,0-1.23-1.23-1.91-2.86-1.91-4.6s.68-3.37,1.91-4.6c2.06-2.06,5.17-2.45,7.62-1.17-1.33-.75-2.87-1.17-4.5-1.17Z"/>
      <path class="cls-1" d="M47.25,65.1c1.8,0,3.25,1.46,3.25,3.25s-1.46,3.25-3.25,3.25c-.53,0-1.02-.12-1.46-.35-1.07-.53-1.79-1.64-1.79-2.91s.73-2.37,1.79-2.91c.44-.22.94-.35,1.47-.35Z"/>
    </g>
    <g>
      <path class="cls-1" d="M120.52,70.69c0-15.74,12.04-26.89,28.44-26.89,9.53,0,17.21,3.47,22.24,9.75l-9.31,8.42c-3.25-3.92-7.24-6.06-12.19-6.06-8.5,0-14.41,5.91-14.41,14.78s5.91,14.78,14.41,14.78c4.95,0,8.94-2.14,12.19-6.06l9.31,8.42c-5.02,6.28-12.71,9.75-22.24,9.75-16.4,0-28.44-11.16-28.44-26.89Z"/>
      <path class="cls-1" d="M187.67,44.83h14.63v40.12h24.67v11.6h-39.3v-51.71Z"/>
      <path class="cls-1" d="M277.95,86.5h-21.87l-4.06,10.05h-14.92l22.83-51.71h14.41l22.9,51.71h-15.22l-4.06-10.05ZM273.67,75.71l-6.65-16.55-6.65,16.55h13.3Z"/>
      <path class="cls-1" d="M307.95,70.69c0-15.74,12.04-26.89,28.44-26.89,9.53,0,17.21,3.47,22.24,9.75l-9.31,8.42c-3.25-3.92-7.24-6.06-12.19-6.06-8.5,0-14.41,5.91-14.41,14.78s5.91,14.78,14.41,14.78c4.95,0,8.94-2.14,12.19-6.06l9.31,8.42c-5.02,6.28-12.71,9.75-22.24,9.75-16.4,0-28.44-11.16-28.44-26.89Z"/>
      <path class="cls-1" d="M370.89,91.89l4.8-10.79c4.58,3.03,11.08,5.1,17.07,5.1s8.42-1.7,8.42-4.21c0-8.2-29.4-2.22-29.4-21.42,0-9.23,7.54-16.77,22.9-16.77,6.72,0,13.67,1.55,18.77,4.51l-4.51,10.86c-4.95-2.66-9.83-3.99-14.33-3.99-6.13,0-8.35,2.07-8.35,4.65,0,7.9,29.33,1.99,29.33,21.06,0,9.01-7.53,16.7-22.9,16.7-8.5,0-16.92-2.29-21.79-5.69Z"/>
      <path class="cls-1" d="M429.63,70.69c0-15.51,12.19-26.89,28.74-26.89s28.74,11.38,28.74,26.89-12.19,26.89-28.74,26.89-28.74-11.38-28.74-26.89ZM472.33,70.69c0-8.94-6.13-14.78-13.96-14.78s-13.96,5.84-13.96,14.78,6.13,14.78,13.96,14.78,13.96-5.84,13.96-14.78Z"/>
    </g>
  </g>
</svg>