<?xml version="1.0" encoding="utf-8"?>
<!-- Generator: Adobe Illustrator 13.0.0, SVG Export Plug-In . SVG Version: 6.00 Build 14948)  -->
<!DOCTYPE svg PUBLIC "-//W3C//DTD SVG 1.1//EN" "http://www.w3.org/Graphics/SVG/1.1/DTD/svg11.dtd">
<svg version="1.1" id="Calque_1" xmlns="http://www.w3.org/2000/svg" xmlns:xlink="http://www.w3.org/1999/xlink" x="0px" y="0px"
	 width="517.606px" height="151.526px" viewBox="0 0 517.606 151.526" enable-background="new 0 0 517.606 151.526"
	 xml:space="preserve">
<g>
	<polygon points="75.54,38.123 75.54,100.891 72.001,100.891 72.001,108.608 93.832,108.608 93.832,38.123 75.54,38.123 	"/>
	<polygon points="72.001,3.858 72.001,18.569 75.54,18.569 75.54,23.614 93.832,23.614 93.832,3.858 72.001,3.858 	"/>
	<path d="M179.181,108.608v-90.04V6.563h14.661V1.852H172.01v45.533h-0.326c-6.517-7.564-14.174-11.114-25.09-11.114
		c-25.613,0-35.093,19.256-35.187,41.038h14.822v31.3h40.173c3.252-2.498,5.537-7.504,5.537-7.504v7.504H179.181L179.181,108.608z
		 M152.622,103.411c-14.337,0-18.41-14.816-18.41-25.774c0-10.651,3.91-25.313,18.084-25.313c14.011,0,19.551,14.2,19.551,25.313
		C171.847,88.903,167.122,103.411,152.622,103.411L152.622,103.411z"/>
	<path d="M266.529,100.891V39.373c-3.912-1.979-8.658-3.102-14.358-3.102c-11.404,0-20.854,4.939-26.394,12.657h-0.325V1.852H203.62
		v16.717h4.073v90.04h17.759V78.717c0-10.187,3.421-26.393,19.225-26.393c14.011,0,14.174,13.119,14.174,22.843v33.442h21.832
		v-7.718H266.529L266.529,100.891z"/>
	<path d="M58.815,1.697C54.579,0.771,48.388,0,42.849,0c-17.27,0-26.719,11.112-26.719,27.01v11.113H0V52.87h20.777v48.021h-4.648
		v7.718h21.832V53.25h19.062V38.123H37.961v-0.046h-0.438v-2.787v-0.965V6.563h20.784L58.815,1.697L58.815,1.697z"/>
	<polygon points="23.395,126.917 18.438,126.917 18.438,131.868 23.22,131.868 23.22,134.753 18.438,134.753 18.438,144.483 
		16.317,144.483 16.317,124.032 23.395,124.032 23.395,126.917 	"/>
	<path d="M33.525,138.741h-6.43c0.055,1.049,0.295,1.885,0.719,2.504c0.423,0.612,0.967,0.918,1.63,0.918
		c0.516,0,0.943-0.174,1.281-0.523c0.332-0.348,0.709-0.994,1.133-1.938l1.75,1.403c-0.271,0.662-0.556,1.229-0.857,1.701
		c-0.301,0.472-0.623,0.86-0.967,1.164c-0.344,0.305-0.716,0.526-1.115,0.669c-0.399,0.141-0.832,0.211-1.299,0.211
		c-1.339,0-2.414-0.618-3.225-1.855c-0.811-1.244-1.216-2.896-1.216-4.955c0-2.039,0.393-3.691,1.179-4.955
		c0.792-1.245,1.842-1.868,3.15-1.868c1.32,0,2.364,0.606,3.132,1.817c0.762,1.205,1.143,2.871,1.143,5.004L33.525,138.741
		L33.525,138.741z M31.397,136.309c-0.289-1.603-0.986-2.405-2.091-2.405c-0.251,0-0.489,0.057-0.709,0.168
		c-0.221,0.111-0.422,0.271-0.604,0.48c-0.181,0.21-0.335,0.461-0.465,0.755c-0.129,0.294-0.228,0.628-0.295,1.002H31.397
		L31.397,136.309z M32.371,125.234l-3.354,4.37l-1.133-1.006l2.533-4.82L32.371,125.234L32.371,125.234z"/>
	<path d="M42.396,122.108h2.093v22.375h-2.093v-1.351c-0.818,1.146-1.742,1.718-2.775,1.718c-1.229,0-2.25-0.645-3.061-1.934
		c-0.805-1.316-1.208-2.959-1.208-4.93c0-1.925,0.402-3.533,1.208-4.822c0.799-1.299,1.804-1.948,3.015-1.948
		c1.051,0,1.991,0.618,2.821,1.854V122.108L42.396,122.108z M37.474,137.975c0,1.233,0.23,2.238,0.693,3.013
		c0.474,0.784,1.072,1.176,1.792,1.176c0.77,0,1.392-0.379,1.866-1.135c0.474-0.785,0.711-1.781,0.711-2.988
		s-0.237-2.201-0.711-2.986c-0.474-0.766-1.09-1.15-1.848-1.15c-0.715,0-1.313,0.389-1.792,1.163
		C37.711,135.851,37.474,136.821,37.474,137.975L37.474,137.975z"/>
	<path d="M55.26,138.741h-6.43c0.055,1.049,0.295,1.885,0.719,2.504c0.423,0.612,0.967,0.918,1.63,0.918
		c0.516,0,0.943-0.174,1.281-0.523c0.332-0.348,0.709-0.994,1.133-1.938l1.75,1.403c-0.271,0.662-0.556,1.229-0.857,1.701
		c-0.301,0.472-0.624,0.86-0.967,1.164c-0.344,0.305-0.715,0.526-1.115,0.669c-0.399,0.141-0.832,0.211-1.299,0.211
		c-1.339,0-2.414-0.618-3.225-1.855c-0.811-1.244-1.216-2.896-1.216-4.955c0-2.039,0.393-3.691,1.179-4.955
		c0.792-1.245,1.842-1.868,3.151-1.868c1.32,0,2.364,0.606,3.131,1.817c0.762,1.205,1.143,2.871,1.143,5.004L55.26,138.741
		L55.26,138.741z M53.132,136.309c-0.289-1.603-0.986-2.405-2.091-2.405c-0.252,0-0.489,0.057-0.71,0.168s-0.422,0.271-0.604,0.48
		c-0.181,0.21-0.335,0.461-0.465,0.755c-0.129,0.294-0.228,0.628-0.294,1.002H53.132L53.132,136.309z M54.105,125.234l-3.353,4.37
		l-1.133-1.006l2.533-4.82L54.105,125.234L54.105,125.234z"/>
	<path d="M57.512,131.585h2.065v1.152c0.38-0.574,0.718-0.967,1.013-1.18c0.301-0.227,0.657-0.341,1.068-0.341
		c0.546,0,1.118,0.257,1.714,0.769l-0.949,2.73c-0.393-0.406-0.777-0.61-1.151-0.61c-1.13,0-1.695,1.229-1.695,3.685v6.693h-2.065
		V131.585L57.512,131.585z"/>
	<path d="M71.054,131.585h2.093v12.898h-2.093v-1.351c-0.854,1.146-1.773,1.718-2.757,1.718c-1.241,0-2.267-0.645-3.079-1.934
		c-0.805-1.316-1.207-2.959-1.207-4.93c0-1.934,0.402-3.547,1.207-4.836c0.805-1.289,1.813-1.935,3.024-1.935
		c1.045,0,1.982,0.622,2.812,1.864V131.585L71.054,131.585z M66.132,137.975c0,1.233,0.231,2.238,0.693,3.013
		c0.474,0.784,1.072,1.176,1.792,1.176c0.77,0,1.393-0.379,1.867-1.135c0.474-0.785,0.711-1.781,0.711-2.988
		s-0.237-2.201-0.711-2.986c-0.474-0.766-1.091-1.15-1.848-1.15c-0.715,0-1.312,0.389-1.792,1.163
		C66.369,135.851,66.132,136.821,66.132,137.975L66.132,137.975z"/>
	<polygon points="77.89,134.356 77.89,144.483 75.825,144.483 75.825,134.356 74.94,134.356 74.94,131.585 75.825,131.585 
		75.825,126.86 77.89,126.86 77.89,131.585 79.501,131.585 79.501,134.356 77.89,134.356 	"/>
	<path d="M80.584,126.208c0-0.521,0.131-0.971,0.394-1.352c0.263-0.38,0.578-0.57,0.945-0.57c0.373,0,0.69,0.19,0.954,0.569
		c0.262,0.372,0.394,0.826,0.394,1.365s-0.132,0.998-0.394,1.377c-0.257,0.38-0.572,0.569-0.945,0.569s-0.691-0.189-0.954-0.569
		C80.715,127.219,80.584,126.755,80.584,126.208L80.584,126.208z M82.96,131.585v12.898h-2.065v-12.898H82.96L82.96,131.585z"/>
	<path d="M85.166,137.935c0-1.863,0.464-3.449,1.393-4.757c0.929-1.308,2.061-1.961,3.397-1.961c1.341,0,2.479,0.657,3.415,1.975
		c0.922,1.316,1.384,2.933,1.384,4.849c0,1.936-0.465,3.556-1.394,4.863c-0.935,1.299-2.083,1.947-3.442,1.947
		c-1.348,0-2.477-0.662-3.388-1.986C85.621,141.556,85.166,139.913,85.166,137.935L85.166,137.935z M87.287,137.975
		c0,1.286,0.24,2.304,0.721,3.054c0.492,0.756,1.141,1.135,1.948,1.135c0.812,0,1.461-0.373,1.948-1.123
		c0.486-0.748,0.729-1.748,0.729-3c0-1.25-0.243-2.25-0.729-3c-0.493-0.758-1.142-1.137-1.948-1.137
		c-0.794,0-1.438,0.381-1.93,1.137C87.533,135.799,87.287,136.776,87.287,137.975L87.287,137.975z"/>
	<path d="M96.922,131.585h2.093v1.191c0.726-1.039,1.545-1.56,2.455-1.56c1.046,0,1.861,0.473,2.446,1.419
		c0.504,0.804,0.757,2.115,0.757,3.936v7.912h-2.094v-7.203c0-1.271-0.122-2.149-0.368-2.635c-0.239-0.494-0.675-0.742-1.307-0.742
		c-0.688,0-1.177,0.327-1.465,0.98c-0.283,0.645-0.424,1.77-0.424,3.377v6.223h-2.093V131.585L96.922,131.585z"/>
	<path d="M118.639,131.585h2.093v1.191c0.726-1.039,1.544-1.56,2.454-1.56c1.046,0,1.862,0.473,2.446,1.419
		c0.505,0.804,0.757,2.115,0.757,3.936v7.912h-2.093v-7.203c0-1.271-0.123-2.149-0.368-2.635c-0.24-0.494-0.676-0.742-1.308-0.742
		c-0.688,0-1.176,0.327-1.464,0.98c-0.283,0.645-0.424,1.77-0.424,3.377v6.223h-2.093V131.585L118.639,131.585z"/>
	<polygon points="131.127,134.356 131.127,144.483 129.062,144.483 129.062,134.356 128.177,134.356 128.177,131.585 
		129.062,131.585 129.062,126.86 131.127,126.86 131.127,131.585 132.739,131.585 132.739,134.356 131.127,134.356 	"/>
	<path d="M142.476,138.741h-6.43c0.055,1.049,0.295,1.885,0.718,2.504c0.424,0.612,0.967,0.918,1.631,0.918
		c0.516,0,0.943-0.174,1.281-0.523c0.331-0.348,0.709-0.994,1.133-1.938l1.75,1.403c-0.27,0.662-0.556,1.229-0.857,1.701
		c-0.301,0.472-0.623,0.86-0.967,1.164c-0.344,0.305-0.715,0.526-1.115,0.669c-0.399,0.141-0.832,0.211-1.299,0.211
		c-1.339,0-2.414-0.618-3.224-1.855c-0.811-1.244-1.216-2.896-1.216-4.955c0-2.039,0.393-3.691,1.179-4.955
		c0.792-1.245,1.843-1.868,3.151-1.868c1.32,0,2.364,0.606,3.132,1.817c0.761,1.205,1.142,2.871,1.142,5.004L142.476,138.741
		L142.476,138.741z M140.348,136.309c-0.289-1.603-0.986-2.405-2.091-2.405c-0.252,0-0.489,0.057-0.71,0.168
		c-0.221,0.111-0.422,0.271-0.603,0.48c-0.181,0.21-0.336,0.461-0.465,0.755s-0.228,0.628-0.295,1.002H140.348L140.348,136.309z"/>
	<path d="M144.728,131.585h2.065v1.152c0.381-0.574,0.718-0.967,1.013-1.18c0.301-0.227,0.657-0.341,1.069-0.341
		c0.546,0,1.118,0.257,1.713,0.769l-0.948,2.73c-0.394-0.406-0.777-0.61-1.152-0.61c-1.13,0-1.695,1.229-1.695,3.685v6.693h-2.065
		V131.585L144.728,131.585z"/>
	<path d="M152.065,131.585h2.093v1.191c0.726-1.039,1.545-1.56,2.455-1.56c1.046,0,1.861,0.473,2.446,1.419
		c0.504,0.804,0.757,2.115,0.757,3.936v7.912h-2.094v-7.203c0-1.271-0.122-2.149-0.368-2.635c-0.239-0.494-0.676-0.742-1.308-0.742
		c-0.687,0-1.176,0.327-1.464,0.98c-0.283,0.645-0.424,1.77-0.424,3.377v6.223h-2.093V131.585L152.065,131.585z"/>
	<path d="M169.022,131.585h2.093v12.898h-2.093v-1.351c-0.854,1.146-1.773,1.718-2.756,1.718c-1.242,0-2.268-0.645-3.079-1.934
		c-0.806-1.316-1.208-2.959-1.208-4.93c0-1.934,0.402-3.547,1.208-4.836c0.805-1.289,1.812-1.935,3.023-1.935
		c1.045,0,1.982,0.622,2.812,1.864V131.585L169.022,131.585z M164.1,137.975c0,1.233,0.231,2.238,0.694,3.013
		c0.474,0.784,1.071,1.176,1.792,1.176c0.77,0,1.392-0.379,1.866-1.135c0.474-0.785,0.712-1.781,0.712-2.988
		s-0.238-2.201-0.712-2.986c-0.474-0.766-1.09-1.15-1.848-1.15c-0.714,0-1.312,0.389-1.792,1.163
		C164.337,135.851,164.1,136.821,164.1,137.975L164.1,137.975z"/>
	<polygon points="175.858,134.356 175.858,144.483 173.793,144.483 173.793,134.356 172.909,134.356 172.909,131.585 
		173.793,131.585 173.793,126.86 175.858,126.86 175.858,131.585 177.47,131.585 177.47,134.356 175.858,134.356 	"/>
	<path d="M178.552,126.208c0-0.521,0.131-0.971,0.394-1.352c0.263-0.38,0.579-0.57,0.945-0.57c0.373,0,0.691,0.19,0.954,0.569
		c0.263,0.372,0.394,0.826,0.394,1.365s-0.131,0.998-0.394,1.377c-0.257,0.38-0.572,0.569-0.945,0.569s-0.691-0.189-0.954-0.569
		C178.683,127.219,178.552,126.755,178.552,126.208L178.552,126.208z M180.928,131.585v12.898h-2.065v-12.898H180.928
		L180.928,131.585z"/>
	<path d="M183.134,137.935c0-1.863,0.465-3.449,1.394-4.757c0.929-1.308,2.061-1.961,3.396-1.961c1.341,0,2.48,0.657,3.415,1.975
		c0.923,1.316,1.384,2.933,1.384,4.849c0,1.936-0.464,3.556-1.393,4.863c-0.936,1.299-2.083,1.947-3.443,1.947
		c-1.347,0-2.477-0.662-3.387-1.986C183.589,141.556,183.134,139.913,183.134,137.935L183.134,137.935z M185.256,137.975
		c0,1.286,0.24,2.304,0.72,3.054c0.492,0.756,1.142,1.135,1.948,1.135c0.813,0,1.462-0.373,1.948-1.123
		c0.486-0.748,0.73-1.748,0.73-3c0-1.25-0.243-2.25-0.73-3c-0.492-0.758-1.142-1.137-1.948-1.137c-0.794,0-1.437,0.381-1.93,1.137
		C185.502,135.799,185.256,136.776,185.256,137.975L185.256,137.975z"/>
	<path d="M194.891,131.585h2.093v1.191c0.726-1.039,1.544-1.56,2.455-1.56c1.045,0,1.861,0.473,2.445,1.419
		c0.505,0.804,0.757,2.115,0.757,3.936v7.912h-2.093v-7.203c0-1.271-0.123-2.149-0.368-2.635c-0.24-0.494-0.676-0.742-1.308-0.742
		c-0.688,0-1.176,0.327-1.464,0.98c-0.283,0.645-0.424,1.77-0.424,3.377v6.223h-2.093V131.585L194.891,131.585z"/>
	<path d="M211.848,131.585h2.093v12.898h-2.093v-1.351c-0.854,1.146-1.773,1.718-2.757,1.718c-1.241,0-2.268-0.645-3.079-1.934
		c-0.805-1.316-1.207-2.959-1.207-4.93c0-1.934,0.402-3.547,1.207-4.836c0.805-1.289,1.813-1.935,3.024-1.935
		c1.045,0,1.982,0.622,2.812,1.864V131.585L211.848,131.585z M206.926,137.975c0,1.233,0.231,2.238,0.693,3.013
		c0.474,0.784,1.072,1.176,1.792,1.176c0.77,0,1.392-0.379,1.867-1.135c0.474-0.785,0.711-1.781,0.711-2.988
		s-0.237-2.201-0.711-2.986c-0.475-0.766-1.091-1.15-1.848-1.15c-0.715,0-1.312,0.389-1.792,1.163
		C207.163,135.851,206.926,136.821,206.926,137.975L206.926,137.975z"/>
	<polygon points="218.599,122.108 218.599,144.483 216.534,144.483 216.534,122.108 218.599,122.108 	"/>
	<path d="M229.407,138.741h-6.43c0.055,1.049,0.295,1.885,0.718,2.504c0.424,0.612,0.967,0.918,1.631,0.918
		c0.516,0,0.943-0.174,1.281-0.523c0.331-0.348,0.709-0.994,1.133-1.938l1.75,1.403c-0.271,0.662-0.556,1.229-0.857,1.701
		c-0.301,0.472-0.623,0.86-0.967,1.164c-0.344,0.305-0.715,0.526-1.115,0.669c-0.399,0.141-0.832,0.211-1.299,0.211
		c-1.339,0-2.414-0.618-3.224-1.855c-0.811-1.244-1.216-2.896-1.216-4.955c0-2.039,0.393-3.691,1.179-4.955
		c0.792-1.245,1.843-1.868,3.151-1.868c1.32,0,2.364,0.606,3.132,1.817c0.761,1.205,1.142,2.871,1.142,5.004L229.407,138.741
		L229.407,138.741z M227.279,136.309c-0.289-1.603-0.986-2.405-2.091-2.405c-0.252,0-0.489,0.057-0.71,0.168
		s-0.422,0.271-0.603,0.48c-0.181,0.21-0.336,0.461-0.465,0.755s-0.228,0.628-0.295,1.002H227.279L227.279,136.309z"/>
	<path d="M244.096,122.108h2.093v22.375h-2.093v-1.351c-0.818,1.146-1.742,1.718-2.775,1.718c-1.229,0-2.249-0.645-3.061-1.934
		c-0.805-1.316-1.207-2.959-1.207-4.93c0-1.925,0.402-3.533,1.207-4.822c0.799-1.299,1.804-1.948,3.015-1.948
		c1.051,0,1.991,0.618,2.821,1.854V122.108L244.096,122.108z M239.174,137.975c0,1.233,0.231,2.238,0.693,3.013
		c0.474,0.784,1.072,1.176,1.792,1.176c0.77,0,1.393-0.379,1.867-1.135c0.474-0.785,0.711-1.781,0.711-2.988
		s-0.237-2.201-0.711-2.986c-0.474-0.766-1.09-1.15-1.848-1.15c-0.715,0-1.312,0.389-1.792,1.163
		C239.411,135.851,239.174,136.821,239.174,137.975L239.174,137.975z"/>
	<path d="M256.96,138.741h-6.43c0.055,1.049,0.295,1.885,0.718,2.504c0.424,0.612,0.968,0.918,1.631,0.918
		c0.516,0,0.943-0.174,1.281-0.523c0.331-0.348,0.709-0.994,1.133-1.938l1.75,1.403c-0.27,0.662-0.556,1.229-0.857,1.701
		c-0.301,0.472-0.623,0.86-0.967,1.164c-0.344,0.305-0.715,0.526-1.114,0.669c-0.4,0.141-0.833,0.211-1.299,0.211
		c-1.34,0-2.414-0.618-3.225-1.855c-0.811-1.244-1.216-2.896-1.216-4.955c0-2.039,0.393-3.691,1.179-4.955
		c0.792-1.245,1.843-1.868,3.151-1.868c1.32,0,2.364,0.606,3.132,1.817c0.761,1.205,1.142,2.871,1.142,5.004L256.96,138.741
		L256.96,138.741z M254.832,136.309c-0.289-1.603-0.986-2.405-2.091-2.405c-0.252,0-0.489,0.057-0.71,0.168
		c-0.221,0.111-0.422,0.271-0.603,0.48c-0.181,0.21-0.336,0.461-0.465,0.755s-0.228,0.628-0.295,1.002H254.832L254.832,136.309z"/>
	<path d="M264.431,133.778l-1.714,1.313c-0.27-0.792-0.605-1.188-1.004-1.188c-0.189,0-0.354,0.092-0.488,0.272
		s-0.203,0.413-0.203,0.694c0,0.494,0.399,0.984,1.198,1.47c1.1,0.68,1.839,1.306,2.221,1.88c0.38,0.574,0.57,1.346,0.57,2.316
		c0,1.244-0.319,2.285-0.959,3.123c-0.622,0.795-1.37,1.191-2.25,1.191c-1.505,0-2.57-1.059-3.196-3.174l1.768-1.182
		c0.246,0.613,0.435,1.002,0.563,1.17c0.25,0.332,0.551,0.498,0.901,0.498c0.7,0,1.05-0.457,1.05-1.375
		c0-0.527-0.271-1.021-0.812-1.479c-0.209-0.149-0.418-0.296-0.627-0.437c-0.209-0.142-0.421-0.287-0.636-0.437
		c-0.604-0.423-1.027-0.846-1.273-1.269c-0.314-0.539-0.47-1.23-0.47-2.076c0-1.119,0.268-2.044,0.804-2.776
		c0.549-0.731,1.214-1.098,1.995-1.098C263.018,131.217,263.872,132.071,264.431,133.778L264.431,133.778z"/>
	<path d="M276.476,126.208c0-0.521,0.132-0.971,0.395-1.352c0.263-0.38,0.578-0.57,0.945-0.57c0.372,0,0.689,0.19,0.953,0.569
		c0.263,0.372,0.395,0.826,0.395,1.365s-0.132,0.998-0.395,1.377c-0.258,0.38-0.571,0.569-0.944,0.569s-0.691-0.189-0.954-0.569
		C276.607,127.219,276.476,126.755,276.476,126.208L276.476,126.208z M278.852,131.585v12.898h-2.064v-12.898H278.852
		L278.852,131.585z"/>
	<path d="M290.166,144.178c0,0.608-0.014,1.146-0.042,1.608c-0.027,0.463-0.065,0.871-0.114,1.226
		c-0.146,0.97-0.435,1.805-0.862,2.502c-0.809,1.342-1.922,2.013-3.341,2.013c-1.197,0-2.184-0.466-2.957-1.396
		c-0.799-0.957-1.259-2.279-1.382-3.967h2.082c0.08,0.636,0.212,1.127,0.396,1.471c0.43,0.804,1.056,1.206,1.879,1.206
		c1.517,0,2.275-1.334,2.275-4.002v-1.802c-0.824,1.211-1.775,1.814-2.852,1.814c-1.225,0-2.228-0.636-3.01-1.908
		c-0.787-1.289-1.182-2.9-1.182-4.836c0-1.881,0.366-3.48,1.099-4.796c0.788-1.396,1.828-2.094,3.12-2.094
		c1.133,0,2.073,0.608,2.824,1.825v-1.457h2.065V144.178L290.166,144.178z M288.186,138.048c0-1.249-0.233-2.248-0.701-2.996
		c-0.476-0.766-1.081-1.148-1.82-1.148c-0.789,0-1.41,0.42-1.866,1.254c-0.413,0.748-0.619,1.717-0.619,2.903
		c0,1.17,0.206,2.128,0.619,2.876c0.449,0.818,1.071,1.227,1.866,1.227c0.794,0,1.422-0.412,1.885-1.239
		C287.973,140.176,288.186,139.218,288.186,138.048L288.186,138.048z"/>
	<path d="M294.833,131.585v7.383c0,2.131,0.589,3.195,1.768,3.195s1.769-1.064,1.769-3.195v-7.383h2.064v7.467
		c0,1.033-0.089,1.925-0.267,2.674c-0.172,0.671-0.47,1.275-0.894,1.814c-0.7,0.875-1.592,1.311-2.673,1.311
		c-1.074,0-1.963-0.436-2.663-1.311c-0.43-0.539-0.733-1.144-0.911-1.814c-0.173-0.6-0.259-1.49-0.259-2.674v-7.467H294.833
		L294.833,131.585z"/>
	<path d="M311.22,138.741h-6.43c0.055,1.049,0.295,1.885,0.719,2.504c0.423,0.612,0.967,0.918,1.63,0.918
		c0.517,0,0.943-0.174,1.281-0.523c0.331-0.348,0.709-0.994,1.133-1.938l1.75,1.403c-0.27,0.662-0.556,1.229-0.856,1.701
		c-0.302,0.472-0.623,0.86-0.968,1.164c-0.344,0.305-0.715,0.526-1.113,0.669c-0.4,0.141-0.833,0.211-1.299,0.211
		c-1.341,0-2.414-0.618-3.226-1.855c-0.811-1.244-1.216-2.896-1.216-4.955c0-2.039,0.393-3.691,1.179-4.955
		c0.792-1.245,1.844-1.868,3.151-1.868c1.32,0,2.364,0.606,3.132,1.817c0.761,1.205,1.142,2.871,1.142,5.004L311.22,138.741
		L311.22,138.741z M309.092,136.309c-0.288-1.603-0.985-2.405-2.091-2.405c-0.252,0-0.489,0.057-0.71,0.168s-0.422,0.271-0.604,0.48
		c-0.181,0.21-0.336,0.461-0.465,0.755s-0.228,0.628-0.295,1.002H309.092L309.092,136.309z"/>
	<path d="M318.691,133.778l-1.714,1.313c-0.271-0.792-0.604-1.188-1.004-1.188c-0.19,0-0.353,0.092-0.488,0.272
		s-0.202,0.413-0.202,0.694c0,0.494,0.398,0.984,1.197,1.47c1.099,0.68,1.839,1.306,2.22,1.88s0.571,1.346,0.571,2.316
		c0,1.244-0.32,2.285-0.959,3.123c-0.621,0.795-1.371,1.191-2.25,1.191c-1.505,0-2.57-1.059-3.196-3.174l1.769-1.182
		c0.246,0.613,0.434,1.002,0.563,1.17c0.252,0.332,0.553,0.498,0.902,0.498c0.7,0,1.051-0.457,1.051-1.375
		c0-0.527-0.271-1.021-0.813-1.479c-0.209-0.149-0.418-0.296-0.627-0.437c-0.209-0.142-0.422-0.287-0.637-0.437
		c-0.604-0.423-1.027-0.846-1.273-1.269c-0.313-0.539-0.47-1.23-0.47-2.076c0-1.119,0.268-2.044,0.805-2.776
		c0.548-0.731,1.213-1.098,1.995-1.098C317.279,131.217,318.133,132.071,318.691,133.778L318.691,133.778z"/>
	<path d="M333.559,122.108h2.095v22.375h-2.095v-1.351c-0.816,1.146-1.741,1.718-2.773,1.718c-1.23,0-2.25-0.645-3.062-1.934
		c-0.806-1.316-1.208-2.959-1.208-4.93c0-1.925,0.402-3.533,1.208-4.822c0.8-1.299,1.804-1.948,3.015-1.948
		c1.051,0,1.99,0.618,2.82,1.854V122.108L333.559,122.108z M328.638,137.975c0,1.233,0.23,2.238,0.693,3.013
		c0.474,0.784,1.071,1.176,1.792,1.176c0.77,0,1.392-0.379,1.866-1.135c0.474-0.785,0.712-1.781,0.712-2.988
		s-0.238-2.201-0.712-2.986c-0.475-0.766-1.09-1.15-1.849-1.15c-0.714,0-1.312,0.389-1.792,1.163
		C328.874,135.851,328.638,136.821,328.638,137.975L328.638,137.975z"/>
	<path d="M346.424,138.741h-6.431c0.055,1.049,0.295,1.885,0.719,2.504c0.423,0.612,0.967,0.918,1.63,0.918
		c0.517,0,0.943-0.174,1.282-0.523c0.33-0.348,0.708-0.994,1.133-1.938l1.75,1.403c-0.271,0.662-0.557,1.229-0.856,1.701
		c-0.302,0.472-0.624,0.86-0.969,1.164c-0.343,0.305-0.716,0.526-1.113,0.669c-0.4,0.141-0.832,0.211-1.3,0.211
		c-1.339,0-2.413-0.618-3.225-1.855c-0.81-1.244-1.216-2.896-1.216-4.955c0-2.039,0.393-3.691,1.18-4.955
		c0.792-1.245,1.842-1.868,3.15-1.868c1.32,0,2.365,0.606,3.133,1.817c0.761,1.205,1.142,2.871,1.142,5.004L346.424,138.741
		L346.424,138.741z M344.295,136.309c-0.288-1.603-0.985-2.405-2.091-2.405c-0.251,0-0.488,0.057-0.709,0.168
		s-0.422,0.271-0.604,0.48c-0.181,0.21-0.336,0.461-0.465,0.755s-0.227,0.628-0.294,1.002H344.295L344.295,136.309z"/>
	<path d="M353.894,133.778l-1.714,1.313c-0.27-0.792-0.604-1.188-1.004-1.188c-0.189,0-0.353,0.092-0.488,0.272
		c-0.135,0.181-0.201,0.413-0.201,0.694c0,0.494,0.397,0.984,1.196,1.47c1.1,0.68,1.84,1.306,2.221,1.88s0.57,1.346,0.57,2.316
		c0,1.244-0.319,2.285-0.959,3.123c-0.622,0.795-1.371,1.191-2.249,1.191c-1.505,0-2.569-1.059-3.196-3.174l1.769-1.182
		c0.245,0.613,0.434,1.002,0.563,1.17c0.251,0.332,0.552,0.498,0.901,0.498c0.7,0,1.051-0.457,1.051-1.375
		c0-0.527-0.271-1.021-0.813-1.479c-0.208-0.149-0.417-0.296-0.627-0.437c-0.209-0.142-0.421-0.287-0.636-0.437
		c-0.604-0.423-1.027-0.846-1.273-1.269c-0.313-0.539-0.47-1.23-0.47-2.076c0-1.119,0.268-2.044,0.805-2.776
		c0.548-0.731,1.213-1.098,1.994-1.098C352.482,131.217,353.335,132.071,353.894,133.778L353.894,133.778z"/>
	<path d="M374.416,131.585h2.064v1.152c0.381-0.574,0.718-0.967,1.013-1.18c0.301-0.227,0.658-0.341,1.069-0.341
		c0.546,0,1.117,0.257,1.714,0.769l-0.949,2.73c-0.395-0.406-0.777-0.61-1.151-0.61c-1.131,0-1.695,1.229-1.695,3.685v6.693h-2.064
		V131.585L374.416,131.585z"/>
	<path d="M380.877,137.935c0-1.863,0.465-3.449,1.393-4.757c0.931-1.308,2.063-1.961,3.397-1.961c1.341,0,2.479,0.657,3.415,1.975
		c0.923,1.316,1.384,2.933,1.384,4.849c0,1.936-0.465,3.556-1.393,4.863c-0.936,1.299-2.083,1.947-3.443,1.947
		c-1.348,0-2.477-0.662-3.387-1.986C381.332,141.556,380.877,139.913,380.877,137.935L380.877,137.935z M382.999,137.975
		c0,1.286,0.24,2.304,0.72,3.054c0.492,0.756,1.142,1.135,1.948,1.135c0.813,0,1.461-0.373,1.948-1.123
		c0.485-0.748,0.729-1.748,0.729-3c0-1.25-0.243-2.25-0.729-3c-0.493-0.758-1.144-1.137-1.949-1.137
		c-0.794,0-1.438,0.381-1.929,1.137C383.244,135.799,382.999,136.776,382.999,137.975L382.999,137.975z"/>
	<path d="M392.323,126.208c0-0.521,0.13-0.971,0.394-1.352c0.264-0.38,0.578-0.57,0.945-0.57c0.372,0,0.689,0.19,0.954,0.569
		c0.262,0.372,0.394,0.826,0.394,1.365s-0.132,0.998-0.394,1.377c-0.258,0.38-0.572,0.569-0.945,0.569
		c-0.374,0-0.69-0.189-0.954-0.569C392.453,127.219,392.323,126.755,392.323,126.208L392.323,126.208z M394.699,131.585v12.898
		h-2.065v-12.898H394.699L394.699,131.585z"/>
	<polygon points="399.478,134.356 399.478,144.483 397.413,144.483 397.413,134.356 396.528,134.356 396.528,131.585 
		397.413,131.585 397.413,126.86 399.478,126.86 399.478,131.585 401.089,131.585 401.089,134.356 399.478,134.356 	"/>
	<path d="M407.703,133.778l-1.713,1.313c-0.271-0.792-0.605-1.188-1.004-1.188c-0.191,0-0.354,0.092-0.489,0.272
		s-0.202,0.413-0.202,0.694c0,0.494,0.399,0.984,1.197,1.47c1.099,0.68,1.839,1.306,2.22,1.88c0.38,0.574,0.571,1.346,0.571,2.316
		c0,1.244-0.32,2.285-0.959,3.123c-0.621,0.795-1.371,1.191-2.25,1.191c-1.504,0-2.57-1.059-3.196-3.174l1.769-1.182
		c0.246,0.613,0.434,1.002,0.563,1.17c0.252,0.332,0.552,0.498,0.903,0.498c0.7,0,1.05-0.457,1.05-1.375
		c0-0.527-0.271-1.021-0.813-1.479c-0.209-0.149-0.419-0.296-0.627-0.437c-0.209-0.142-0.421-0.287-0.637-0.437
		c-0.603-0.423-1.027-0.846-1.273-1.269c-0.313-0.539-0.47-1.23-0.47-2.076c0-1.119,0.27-2.044,0.804-2.776
		c0.55-0.731,1.215-1.098,1.995-1.098C406.291,131.217,407.145,132.071,407.703,133.778L407.703,133.778z"/>
	<path d="M422.571,122.108h2.093v22.375h-2.093v-1.351c-0.817,1.146-1.742,1.718-2.774,1.718c-1.229,0-2.25-0.645-3.062-1.934
		c-0.806-1.316-1.207-2.959-1.207-4.93c0-1.925,0.401-3.533,1.207-4.822c0.799-1.299,1.804-1.948,3.015-1.948
		c1.052,0,1.991,0.618,2.821,1.854V122.108L422.571,122.108z M417.649,137.975c0,1.233,0.23,2.238,0.692,3.013
		c0.475,0.784,1.072,1.176,1.793,1.176c0.77,0,1.392-0.379,1.866-1.135c0.475-0.785,0.712-1.781,0.712-2.988
		s-0.237-2.201-0.712-2.986c-0.475-0.766-1.09-1.15-1.848-1.15c-0.714,0-1.313,0.389-1.792,1.163
		C417.886,135.851,417.649,136.821,417.649,137.975L417.649,137.975z"/>
	<path d="M435.435,138.741h-6.43c0.055,1.049,0.295,1.885,0.719,2.504c0.423,0.612,0.968,0.918,1.63,0.918
		c0.517,0,0.942-0.174,1.281-0.523c0.331-0.348,0.709-0.994,1.133-1.938l1.75,1.403c-0.27,0.662-0.556,1.229-0.855,1.701
		c-0.302,0.472-0.624,0.86-0.967,1.164c-0.346,0.305-0.717,0.526-1.116,0.669c-0.399,0.141-0.831,0.211-1.298,0.211
		c-1.339,0-2.414-0.618-3.226-1.855c-0.81-1.244-1.215-2.896-1.215-4.955c0-2.039,0.393-3.691,1.179-4.955
		c0.793-1.245,1.843-1.868,3.15-1.868c1.321,0,2.364,0.606,3.132,1.817c0.761,1.205,1.144,2.871,1.144,5.004L435.435,138.741
		L435.435,138.741z M433.308,136.309c-0.289-1.603-0.986-2.405-2.092-2.405c-0.252,0-0.489,0.057-0.71,0.168
		s-0.421,0.271-0.603,0.48c-0.182,0.21-0.336,0.461-0.466,0.755c-0.129,0.294-0.227,0.628-0.295,1.002H433.308L433.308,136.309z"/>
	<polygon points="445.57,122.108 445.57,144.483 443.505,144.483 443.505,122.108 445.57,122.108 	"/>
	<polygon points="273.27,122.165 273.27,144.538 271.205,144.538 271.205,122.165 273.27,122.165 	"/>
	<polygon points="450.151,123.155 451.994,124.188 449.368,131.755 447.968,130.921 450.151,123.155 	"/>
	<polygon points="456.905,132.038 463.043,132.038 463.043,124.032 465.164,124.032 465.164,144.483 463.043,144.483 
		463.043,134.923 456.905,134.923 456.905,144.483 454.783,144.483 454.783,124.032 456.905,124.032 456.905,132.038 	"/>
	<path d="M467.762,137.935c0-1.863,0.465-3.449,1.394-4.757c0.93-1.308,2.062-1.961,3.396-1.961c1.341,0,2.48,0.657,3.415,1.975
		c0.923,1.316,1.384,2.933,1.384,4.849c0,1.936-0.465,3.556-1.393,4.863c-0.935,1.299-2.083,1.947-3.443,1.947
		c-1.348,0-2.477-0.662-3.387-1.986C468.217,141.556,467.762,139.913,467.762,137.935L467.762,137.935z M469.884,137.975
		c0,1.286,0.24,2.304,0.72,3.054c0.492,0.756,1.142,1.135,1.948,1.135c0.813,0,1.461-0.373,1.948-1.123
		c0.486-0.748,0.73-1.748,0.73-3c0-1.25-0.243-2.25-0.729-3c-0.493-0.758-1.143-1.137-1.949-1.137c-0.794,0-1.438,0.381-1.929,1.137
		C470.129,135.799,469.884,136.776,469.884,137.975L469.884,137.975z"/>
	<path d="M479.519,131.585h2.065v1.191c0.4-0.6,0.742-1.006,1.025-1.219c0.302-0.227,0.681-0.341,1.137-0.341
		c1.016,0,1.821,0.636,2.413,1.907c0.651-1.271,1.536-1.907,2.651-1.907c2.027,0,3.041,1.763,3.041,5.288v7.979h-2.094v-7.172
		c0-1.238-0.104-2.113-0.313-2.625c-0.216-0.521-0.571-0.783-1.065-0.783c-0.574,0-0.991,0.311-1.254,0.93
		c-0.262,0.617-0.393,1.611-0.393,2.981v6.669h-2.094v-7.133c0-2.297-0.46-3.447-1.381-3.447c-0.583,0-1.008,0.314-1.275,0.942
		c-0.267,0.627-0.398,1.617-0.398,2.969v6.669h-2.065V131.585L479.519,131.585z"/>
	<path d="M494.432,131.585h2.065v1.191c0.399-0.6,0.741-1.006,1.026-1.219c0.301-0.227,0.681-0.341,1.137-0.341
		c1.016,0,1.82,0.636,2.411,1.907c0.652-1.271,1.536-1.907,2.652-1.907c2.027,0,3.041,1.763,3.041,5.288v7.979h-2.094v-7.172
		c0-1.238-0.104-2.113-0.313-2.625c-0.218-0.521-0.571-0.783-1.065-0.783c-0.573,0-0.992,0.311-1.254,0.93
		c-0.262,0.617-0.394,1.611-0.394,2.981v6.669h-2.093v-7.133c0-2.297-0.461-3.447-1.38-3.447c-0.584,0-1.008,0.314-1.275,0.942
		c-0.267,0.627-0.399,1.617-0.399,2.969v6.669h-2.065V131.585L494.432,131.585z"/>
	<path d="M517.523,138.741h-6.431c0.056,1.049,0.295,1.885,0.718,2.504c0.425,0.612,0.968,0.918,1.632,0.918
		c0.515,0,0.942-0.174,1.28-0.523c0.331-0.348,0.709-0.994,1.133-1.938l1.751,1.403c-0.271,0.662-0.557,1.229-0.857,1.701
		s-0.622,0.86-0.967,1.164c-0.343,0.305-0.715,0.526-1.114,0.669c-0.4,0.141-0.833,0.211-1.299,0.211
		c-1.34,0-2.414-0.618-3.226-1.855c-0.811-1.244-1.216-2.896-1.216-4.955c0-2.039,0.394-3.691,1.18-4.955
		c0.791-1.245,1.843-1.868,3.15-1.868c1.32,0,2.365,0.606,3.132,1.817c0.763,1.205,1.143,2.871,1.143,5.004L517.523,138.741
		L517.523,138.741z M515.395,136.309c-0.289-1.603-0.984-2.405-2.091-2.405c-0.252,0-0.489,0.057-0.71,0.168
		s-0.422,0.271-0.603,0.48c-0.183,0.21-0.336,0.461-0.465,0.755c-0.13,0.294-0.229,0.628-0.295,1.002H515.395L515.395,136.309z"/>
	<path d="M113.528,126.251c0-0.521,0.131-0.971,0.394-1.352c0.263-0.38,0.578-0.57,0.945-0.57c0.372,0,0.69,0.19,0.954,0.57
		c0.262,0.371,0.394,0.826,0.394,1.364c0,0.539-0.132,0.998-0.394,1.378c-0.258,0.379-0.572,0.568-0.945,0.568
		s-0.691-0.189-0.954-0.568C113.659,127.262,113.528,126.798,113.528,126.251L113.528,126.251z M115.904,131.628v12.898h-2.065
		v-12.898H115.904L115.904,131.628z"/>
	<path d="M369.311,122.141h2.094v22.374h-2.094v-1.352c-0.817,1.146-1.741,1.72-2.774,1.72c-1.229,0-2.249-0.646-3.062-1.935
		c-0.805-1.316-1.207-2.959-1.207-4.929c0-1.925,0.402-3.532,1.207-4.823c0.8-1.299,1.805-1.947,3.016-1.947
		c1.051,0,1.991,0.617,2.82,1.854V122.141L369.311,122.141z M364.389,138.006c0,1.233,0.231,2.239,0.693,3.014
		c0.474,0.784,1.072,1.177,1.792,1.177c0.77,0,1.393-0.38,1.867-1.137c0.474-0.784,0.711-1.779,0.711-2.986
		s-0.237-2.203-0.711-2.988c-0.475-0.766-1.09-1.149-1.849-1.149c-0.715,0-1.312,0.388-1.792,1.163
		C364.626,135.883,364.389,136.852,364.389,138.006L364.389,138.006z"/>
</g>
</svg>
