<?xml version="1.0" encoding="UTF-8"?>
<svg id="Layer_1" xmlns="http://www.w3.org/2000/svg" version="1.1" viewBox="0 0 387.2 144.8">
  <!-- Generator: Adobe Illustrator 30.2.1, SVG Export Plug-In . SVG Version: 2.1.1 Build 1)  -->
  <defs>
    <style>
      .st0 {
        fill: #111;
      }

      .st1 {
        fill: #83185a;
      }

      .st2 {
        fill: #82195a;
      }

      .st3 {
        fill: #060507;
      }

      .st4 {
        fill: #2c2c2c;
      }

      .st5 {
        fill: #201e1f;
      }

      .st6 {
        fill: #811b5a;
      }

      .st7 {
        fill: #090909;
      }

      .st8 {
        fill: #282527;
      }

      .st9 {
        fill: #202121;
      }

      .st10 {
        fill: #303030;
      }

      .st11 {
        fill: #831858;
      }

      .st12 {
        fill: #1c1c1c;
      }

      .st13 {
        fill: #811958;
      }

      .st14 {
        fill: #821b5c;
      }

      .st15 {
        fill: #841a5b;
      }

      .st16 {
        fill: #202020;
      }

      .st17 {
        fill: #212121;
      }

      .st18 {
        fill: #1e1b1e;
      }

      .st19 {
        fill: #1c1c1d;
      }

      .st20 {
        fill: #232323;
      }

      .st21 {
        fill: #19181a;
      }

      .st22 {
        fill: #292929;
      }

      .st23 {
        fill: #811859;
      }

      .st24 {
        fill: #222023;
      }

      .st25 {
        fill: #1a1819;
      }

      .st26 {
        fill: #1c1c1e;
      }

      .st27 {
        fill: #0b090b;
      }
    </style>
  </defs>
  <path class="st5" d="M199,116.9c-3.8-2.4-.7-5.7-3.1-8.5-1.3,2.7-.4,5.8-3,8.4-2.4-2.3-2.2-5.5-3.7-7.7-.9,2.5.7,5.3-2.2,7.8-1.4-.5,0-17.5,3-13.6,1.5,1.9,1.1,4.6,2.7,7.5,2-1.1,1.2-8.9,5.3-7.5.9,4.1,1.9,8.5,1,13.6Z"/>
  <path class="st24" d="M230.9,117c-4.2-2.4-3.3-5.7-6-8.3-.9,2.4,1.2,8.4-2.2,7.5-.3-4.2-.9-9.1.4-13.3,3.5,1.3,3.8,4.7,5.5,7.9l1.9-8c1.7,4.2,1.3,9.1.3,14.2Z"/>
  <path class="st4" d="M239.2,115.7c-.9-3.1-.9-8.8,0-11.9,2-1.5,6.1-.1,7.5,1.3s1.9,6.1.9,8.4c-1.2,2.7-5.2,4.4-8.4,2.3ZM245.7,109.1c-.2-2.9-1.7-4.4-4.3-3.9-.3,3-.7,6.3.3,9.6,3.6,0,4.2-2.6,4-5.7Z"/>
  <path class="st8" d="M93.8,115.9c-.7,4.4-6.2-8.2-6.1-7.4-.9,3,1.4,5.8-1.8,8.5-1.4-4.8-1.4-9.8,0-14.5,3.8,2.1,3.3,5.3,5.6,7.2,1.1-2.4-.4-4.9,1.9-6.9,1.5,4.4,1.1,9.1.4,13.1Z"/>
  <path class="st20" d="M168.8,117c-3.9-2.3-3.4-5.6-5.8-8.1-1,2.3.6,5-1.4,8-2-4.1-1.3-8.9-.6-13.8,3.9,1.2,4.1,5.2,5.7,8.7,1.7-19.5,3.9-2.7,2.1,5.3Z"/>
  <path class="st16" d="M265.4,109.1c.3,4.5-1.7,7.6-5.6,7.5s-5.6-3.1-5.4-7,1.6-5.9,4.8-6.5,5.9,1.8,6.2,5.9ZM261,114.5c3-1.2,2.4-8.9-.5-9.4-3.4-.6-3.6,3.4-3.6,5.1s.5,5.8,4.1,4.3Z"/>
  <path class="st19" d="M346.6,109.1c.2,4.6-1.9,7.7-5.8,7.5s-5.5-3-5.3-7,1.6-6.1,4.7-6.5c3-.4,6.2,1.7,6.4,5.9ZM344.1,110.9c.4-2.7-.7-6.4-3.6-5.8s-2.4,4.3-2.3,6.5,1.6,3.5,3.6,3.1,2-1.4,2.3-3.8Z"/>
  <path class="st22" d="M299.8,102.3c.5,5.8,3,13.8-3,14.2s-4.5,0-4.9-2.2c-.6-3.9-1-7.8.4-11.6,3.6,2-.5,11.5,3.2,12,5.9.9.3-11.5,4.1-12.4Z"/>
  <path class="st17" d="M128.1,110c0,4-2.3,6.7-5.3,6.7s-5.7-3-5.7-7.1,2.1-6.5,5.5-6.5c3.3,0,5.5,2.9,5.5,6.9ZM124,105.5c-.8-.7-2.3-.7-3.3.1-1.7,1.5-1.5,7.1-.3,8.2s2.8,1.3,3.9.4,1.9-6.8-.3-8.7Z"/>
  <path class="st10" d="M44.8,109.5c-1.2,1.2-2.3.7-3,1.2-1.1.7-1.4,3-.4,3.6,1.7,1,3.6-.3,5,1.5-2.7,1.1-5.1.7-7.7.5-.2-4.6-.5-8.6.1-13.1,2.4-.3,4.6-.5,6.9.4-.9,2.5-3,.9-4.4,2.1s-.4,2.5.4,2.8,2,.1,3,1Z"/>
  <path class="st25" d="M101.8,115.8c-.7-3-1.1-8.4.2-11.9,1.2-1.8,6.2-.4,7.4,1.3s1.6,5.8.9,7.8c-1.2,3.3-5.7,4.5-8.5,2.7ZM104.1,114.9c4.7-.7,4.1-3.3,4.2-5.8s-1.4-5.1-3.9-3.9c-2,1.6-1.1,6.9-.4,9.7Z"/>
  <path class="st12" d="M152.4,103c1.2,3.9,2.5,12.9-2.7,13.6s-4.8.3-5.1-2c-.6-4.2-.8-8.3.4-12.7,3,.6-.7,12.1,3,12.8s2.4.1,2.8-1.4c1.5-3.2-.9-6.4,1.7-10.3Z"/>
  <path class="st27" d="M77.9,109.3c2.1,1.1-4.1.2-4.4,2.8s.5,2.6,2.8,2.5,1.9.1,2.9,1.7c-2.4.2-4.8.2-7.8,0,.1-4.3-.7-8.3.3-12.5.2-1,6.5-1.4,6.5.3s-.8,1.6-2.1,1.2-1.8,0-2.2.3-.5,1.4-.3,2.3,2.7.6,4.1,1.3Z"/>
  <path class="st21" d="M311.3,105.2c-5.4,1.9,6.2,3.1,5.2,8s-3.3,3.8-6.3,3.4c-7.2-1.1,2.8-2.1,3-2.2.6-.2.9-1,.8-2s-1.4-1.2-2.6-1.6c-2.5-.8-4.3-2.6-3.2-5.3s4.4-3,7.2-1.4.8,0,.3.9c-.9,1.5-2.3-.4-4.5.3Z"/>
  <path class="st18" d="M214.4,103c1.7,3.2.7,6.3.9,9.6s-2.9,4.3-5.4,4.1c-5.7-.6-3.9-13.9-2-14.2,1.3,1.9-.6,11.2,2,12.1s3.1-.1,3.2-2c1.2-3-1.2-6,1.3-9.5Z"/>
  <path class="st26" d="M326.3,117.3c-3.4-6.1,3-8.9-4.5-13.5,2.9-.9,6-.9,9-.4.1,2.1-1.9,1.6-3,2.6-1.3,3.6,1,7.1-1.5,11.3Z"/>
  <path class="st0" d="M28.3,117.3c-2.4-3.6,1.3-8.1-1.1-10.6l-2.9-3c3-.9,5.9-.9,8.7,0-.6,1.6-2,1.4-3,2.2-1.4,3.5.8,7.1-1.6,11.3Z"/>
  <rect class="st3" x="61.7" y="103.6" width="2.5" height="12.8"/>
  <path class="st9" d="M283.2,101.8c1.7,2.7,1.8,14.3-.4,16.7s-2.2.5-1.6-.5c2.8-5.4-.4-10.4,2.1-16.2Z"/>
  <path class="st7" d="M54.3,102.6c-.8,3.9,2.5,18.4-3.2,15.8,3.4-5.4-1.3-15.1,3.2-15.8Z"/>
  <g>
    <path class="st23" d="M73.2,54.1c-3-2.7-9.2-1.2-10.3.4s.2,2,.2,3.2l.2,31.5c-4.6.6-8.6.6-13.1,0-1-7.8,2.6-32.9-4.2-36s-8.3-1.6-8.4,1l-.4,35c-4.4.6-8.5.6-13,0v-45.3c10.2-2.7,24.8-5.4,32.8,1.7,4.9-3.6,10.4-4.6,16.3-4.4,8.9.3,15,6.7,15.7,15.6.9,10.8.3,21.5.5,32.6h-13.3c-.9-8.6,2.1-30.6-3.1-35.4Z"/>
    <path class="st1" d="M169.3,70.6c3.1,11.4,16.9,9.2,25.6,6.9,1.3,3.7,1.7,6.6,2.4,10.5-7.9,3-16.8,3.7-25.1,1.7s-16.8-12.9-16.5-24.1,4.7-18.8,13.6-22.6c8.6-3.7,19.8-2.3,26,5.5s5.3,14.2,4.6,21.8l-30.6.3ZM187.3,60.9c-.6-7.1-4.8-9.2-10.4-8.6s-7.3,3.6-6.9,8.7c6.2,0,11.7.5,17.3-.2Z"/>
    <path class="st23" d="M328.8,64c.8,15.4-8.4,26.6-22.9,26.9-13.9.3-23.8-10.8-23.7-25.4.1-13.3,8.9-23.8,21.8-24.5,13.5-.8,24,8.7,24.8,23ZM314,72.9c1.7-5.1,1.5-10-.3-14.5s-4.8-6.2-8.9-5.8c-9.7.8-9.8,13.8-7.9,20.3,1.2,4.1,4.9,6.5,8.8,6.4s6.9-2.3,8.3-6.5Z"/>
    <path class="st11" d="M152.3,77.1c-.6,16.6-25.6,15.6-36.3,10.8.5-4.1,1.1-7.1,2-10.6,5.1,1.8,20.1,5.2,20.8-.3s-.8-2.9-2.3-3.6l-11.3-4.9c-6.4-2.8-8.8-8.7-7.9-15.4,1.7-13.8,22.6-13.8,32.7-9.5-.5,3.5-1.1,6.5-2.2,10-3.7-1-16-3.8-17.2.7-2.4,8.4,22.3,4.9,21.7,22.8Z"/>
    <path class="st6" d="M347.3,53.3l-.2,36c-4.5.5-8.3.4-13.3.1v-44.5c9.3-3.8,19.3-4.8,29.1-2.4l-2.1,10.9c-4.5-.3-8.3-1.7-13.6-.2Z"/>
    <path class="st13" d="M218.7,53.6l-.3,35.9c-4.8.3-8.6.3-13.1-.1v-44.6c9.6-3.4,19.3-4.6,29-2.3-.4,3.9-1.2,7.3-2.3,11-4.5-.6-8.6-1.6-13.4,0Z"/>
    <path class="st14" d="M110.2,89.2c-4.7.7-9,.6-13.6.1v-41.8c4.6,1.2,8.7,1.6,13.5.3v41.3Z"/>
    <circle class="st15" cx="103.4" cy="34.5" r="8.5"/>
    <path class="st2" d="M248,70.5c1.8,11.4,17.2,9.3,25.2,7,1.5,3.4,2.4,7,2.1,10.7-7.4,2.4-15,3.2-22.5,2-12.4-2-19-12.4-18.7-24.7s5-19.3,14.4-22.9c8.5-3.3,19.5-1.8,25.5,6.2,4.7,6.2,5,14.1,4.2,21.6l-30.2.2ZM265.6,60.8c-.6-6.8-5-8.9-9.2-8.6s-8.2,4-8,8.9c5.9,0,11.5.6,17.3-.3Z"/>
  </g>
</svg>